<svg xmlns="http://www.w3.org/2000/svg" xmlns:xlink="http://www.w3.org/1999/xlink" version="1.1" id="v-2" width="100%" height="100%" viewBox="280 152.3330078125 340 162.6669921875"><defs id="v-4" style="cursor: -webkit-grabbing; font-family: 'Source Sans Pro', sans-serif; -webkit-user-select: none;"/><g id="v-3" class="viewport" transform="" style="cursor: -webkit-grabbing; font-family: 'Source Sans Pro', sans-serif; -webkit-user-select: none;"><g id="j_25" model-id="7387363f-c91d-4fef-9f81-96c93fef379a" class="element erd Entity" transform="translate(519.9999999999998,165.99999999999997)" style="cursor: move; font-family: 'Source Sans Pro', sans-serif; -webkit-user-select: none;"><g class="rotatable" id="v-195" transform="rotate(0,50,20)" style="cursor: move; font-family: 'Source Sans Pro', sans-serif; -webkit-user-select: none; vector-effect: non-scaling-stroke;"><g class="scalable" id="v-199" transform="scale(1,0.6666666666666666)" style="cursor: move; font-family: 'Source Sans Pro', sans-serif; -webkit-user-select: none; vector-effect: non-scaling-stroke;"><polygon class="outer" id="v-196" fill="#ffffff" stroke="#000000" stroke-width="2" points="100,0 100,60 0,60 0,0" stroke-dasharray="0" style="cursor: move; font-family: 'Source Sans Pro', sans-serif; -webkit-user-select: none; vector-effect: non-scaling-stroke;"/><polygon class="inner" id="v-197" fill="#2ECC71" stroke="#27AE60" stroke-width="2" points="95,5 95,55 5,55 5,5" display="none" style="cursor: move; font-family: 'Source Sans Pro', sans-serif; -webkit-user-select: none; vector-effect: non-scaling-stroke;"/></g><text id="v-198" y="0.8em" display="null" xml:space="preserve" font-family="Arial" font-size="14" transform="translate(5.5,12)" font-weight="400" fill="#000000" stroke="#000000" stroke-width="0" style="cursor: move; -webkit-user-select: none; vector-effect: non-scaling-stroke;">Shopping Cart</text></g></g><g id="j_36" model-id="42e70739-1e35-4958-bf6c-243c9a9386ce" class="link" style="pointer-events: visiblepainted; cursor: -webkit-grabbing; font-family: 'Source Sans Pro', sans-serif; -webkit-user-select: none;"><path class="connection" stroke="black" id="v-247" d="M 570 210 570 240 570 245" style="cursor: -webkit-grabbing; font-family: 'Source Sans Pro', sans-serif; -webkit-user-select: none; fill: none; stroke-linejoin: round;"/><path class="marker-source" fill="black" stroke="black" id="v-248" d="M 10 0 L 0 5 L 10 10 z" transform="translate(570.0050000003539,210.0000048824586) scale(0.001,0.001) rotate(-270)" style="cursor: -webkit-grabbing; font-family: 'Source Sans Pro', sans-serif; -webkit-user-select: none; vector-effect: non-scaling-stroke;"/><path class="marker-target" fill="black" stroke="black" id="v-249" d="M 10 0 L 0 5 L 10 10 z" transform="translate(565,255) scale(1,1) rotate(-90)" style="cursor: -webkit-grabbing; font-family: 'Source Sans Pro', sans-serif; -webkit-user-select: none; vector-effect: non-scaling-stroke;"/><path class="connection-wrap" id="v-250" d="M 570 210 570 240 570 245" style="cursor: move; font-family: 'Source Sans Pro', sans-serif; opacity: 0; z-index: 0; -webkit-user-select: none; fill: none; stroke: rgb(0, 0, 0); stroke-linecap: round; stroke-linejoin: round; stroke-width: 15px;"/><g class="labels" id="v-251" style="cursor: -webkit-grabbing; font-family: 'Source Sans Pro', sans-serif; -webkit-user-select: none;"/><g class="marker-vertices" id="v-252" style="cursor: move; font-family: 'Source Sans Pro', sans-serif; opacity: 0; z-index: 0; -webkit-user-select: none;"><g class="marker-vertex-group" transform="translate(570, 240)" id="v-1013" style="cursor: move; font-family: 'Source Sans Pro', sans-serif; -webkit-user-select: none;"><circle class="marker-vertex" idx="0" r="10" style="cursor: move; font-family: 'Source Sans Pro', sans-serif; -webkit-user-select: none; fill: rgb(26, 188, 156);"/><path class="marker-vertex-remove-area" idx="0" d="M16,5.333c-7.732,0-14,4.701-14,10.5c0,1.982,0.741,3.833,2.016,5.414L2,25.667l5.613-1.441c2.339,1.317,5.237,2.107,8.387,2.107c7.732,0,14-4.701,14-10.5C30,10.034,23.732,5.333,16,5.333z" transform="translate(5, -33)" style="cursor: pointer; font-family: 'Source Sans Pro', sans-serif; opacity: 0.100000001490116; z-index: 0; -webkit-user-select: none;"/><path class="marker-vertex-remove" idx="0" transform="scale(.8) translate(9.5, -37)" d="M24.778,21.419 19.276,15.917 24.777,10.415 21.949,7.585 16.447,13.087 10.945,7.585 8.117,10.415 13.618,15.917 8.116,21.419 10.946,24.248 16.447,18.746 21.948,24.248z" style="cursor: pointer; font-family: 'Source Sans Pro', sans-serif; opacity: 0.100000001490116; z-index: 0; -webkit-user-select: none; fill: rgb(255, 255, 255);"><title style="cursor: pointer; font-family: 'Source Sans Pro', sans-serif; -webkit-user-select: none; fill: rgb(255, 255, 255);">Remove vertex.</title></path></g></g><g class="marker-arrowheads" id="v-253" style="cursor: -webkit-grab; font-family: 'Source Sans Pro', sans-serif; opacity: 0; z-index: 0; -webkit-user-select: none;"><g class="marker-arrowhead-group marker-arrowhead-group-source" id="v-256" transform="translate(576.5,210) scale(0.5,0.5) rotate(-270)" style="cursor: -webkit-grab; font-family: 'Source Sans Pro', sans-serif; -webkit-user-select: none;"><path class="marker-arrowhead" end="source" d="M 26 0 L 0 13 L 26 26 z" style="cursor: -webkit-grab; font-family: 'Source Sans Pro', sans-serif; -webkit-user-select: none; fill: rgb(26, 188, 156);"/></g><g class="marker-arrowhead-group marker-arrowhead-group-target" id="v-257" transform="translate(563.5,255) scale(0.5,0.5) rotate(-90)" style="cursor: -webkit-grab; font-family: 'Source Sans Pro', sans-serif; -webkit-user-select: none;"><path class="marker-arrowhead" end="target" d="M 26 0 L 0 13 L 26 26 z" style="cursor: -webkit-grab; font-family: 'Source Sans Pro', sans-serif; -webkit-user-select: none; fill: rgb(26, 188, 156);"/></g></g><g class="link-tools" id="v-254" style="cursor: pointer; font-family: 'Source Sans Pro', sans-serif; opacity: 0; z-index: 0; -webkit-user-select: none;"><g class="link-tool" id="v-255" transform="translate(570, 230) scale(.5)" style="cursor: pointer; font-family: 'Source Sans Pro', sans-serif; -webkit-user-select: none;"><g class="tool-remove" event="remove" style="cursor: pointer; font-family: 'Source Sans Pro', sans-serif; -webkit-user-select: none;"><circle r="11" style="cursor: pointer; font-family: 'Source Sans Pro', sans-serif; -webkit-user-select: none; fill: rgb(255, 0, 0);"/><path transform="scale(.8) translate(-16, -16)" d="M24.778,21.419 19.276,15.917 24.777,10.415 21.949,7.585 16.447,13.087 10.945,7.585 8.117,10.415 13.618,15.917 8.116,21.419 10.946,24.248 16.447,18.746 21.948,24.248z" style="cursor: pointer; font-family: 'Source Sans Pro', sans-serif; -webkit-user-select: none; fill: rgb(255, 255, 255);"/><title style="cursor: pointer; font-family: 'Source Sans Pro', sans-serif; -webkit-user-select: none;">Remove link.</title></g><g class="tool-options" event="link:options" id="v-262" style="cursor: pointer; display: block; font-family: 'Source Sans Pro', sans-serif; -webkit-user-select: none;"><circle r="11" transform="translate(25)" style="cursor: pointer; font-family: 'Source Sans Pro', sans-serif; -webkit-user-select: none;"/><path fill="white" transform="scale(.55) translate(29, -16)" d="M31.229,17.736c0.064-0.571,0.104-1.148,0.104-1.736s-0.04-1.166-0.104-1.737l-4.377-1.557c-0.218-0.716-0.504-1.401-0.851-2.05l1.993-4.192c-0.725-0.91-1.549-1.734-2.458-2.459l-4.193,1.994c-0.647-0.347-1.334-0.632-2.049-0.849l-1.558-4.378C17.165,0.708,16.588,0.667,16,0.667s-1.166,0.041-1.737,0.105L12.707,5.15c-0.716,0.217-1.401,0.502-2.05,0.849L6.464,4.005C5.554,4.73,4.73,5.554,4.005,6.464l1.994,4.192c-0.347,0.648-0.632,1.334-0.849,2.05l-4.378,1.557C0.708,14.834,0.667,15.412,0.667,16s0.041,1.165,0.105,1.736l4.378,1.558c0.217,0.715,0.502,1.401,0.849,2.049l-1.994,4.193c0.725,0.909,1.549,1.733,2.459,2.458l4.192-1.993c0.648,0.347,1.334,0.633,2.05,0.851l1.557,4.377c0.571,0.064,1.148,0.104,1.737,0.104c0.588,0,1.165-0.04,1.736-0.104l1.558-4.377c0.715-0.218,1.399-0.504,2.049-0.851l4.193,1.993c0.909-0.725,1.733-1.549,2.458-2.458l-1.993-4.193c0.347-0.647,0.633-1.334,0.851-2.049L31.229,17.736zM16,20.871c-2.69,0-4.872-2.182-4.872-4.871c0-2.69,2.182-4.872,4.872-4.872c2.689,0,4.871,2.182,4.871,4.872C20.871,18.689,18.689,20.871,16,20.871z" style="cursor: pointer; font-family: 'Source Sans Pro', sans-serif; -webkit-user-select: none;"/><title style="cursor: pointer; font-family: 'Source Sans Pro', sans-serif; -webkit-user-select: none;">Link options.</title></g></g></g></g><g id="j_44" model-id="766e4e3f-5ef2-4e84-8590-6731a46de4a6" class="element erd Entity" transform="translate(339.9999999999998,205.99999999999997)" style="cursor: move; font-family: 'Source Sans Pro', sans-serif; -webkit-user-select: none;"><g class="rotatable" id="v-275" transform="rotate(0,50,15)" style="cursor: move; font-family: 'Source Sans Pro', sans-serif; -webkit-user-select: none; vector-effect: non-scaling-stroke;"><g class="scalable" id="v-279" transform="scale(1,0.5)" style="cursor: move; font-family: 'Source Sans Pro', sans-serif; -webkit-user-select: none; vector-effect: non-scaling-stroke;"><polygon class="outer" id="v-276" fill="#ffffff" stroke="#000000" stroke-width="2" points="100,0 100,60 0,60 0,0" stroke-dasharray="0" style="cursor: move; font-family: 'Source Sans Pro', sans-serif; -webkit-user-select: none; vector-effect: non-scaling-stroke;"/><polygon class="inner" id="v-277" fill="#2ECC71" stroke="#27AE60" stroke-width="2" points="95,5 95,55 5,55 5,5" display="none" style="cursor: move; font-family: 'Source Sans Pro', sans-serif; -webkit-user-select: none; vector-effect: non-scaling-stroke;"/></g><text id="v-278" y="0.8em" display="null" xml:space="preserve" font-family="Arial" font-size="14" transform="translate(20.5,7)" font-weight="400" fill="#000000" stroke="#000000" stroke-width="0" style="cursor: move; -webkit-user-select: none; vector-effect: non-scaling-stroke;">Keyboard</text></g></g><g id="j_47" model-id="f17b815c-9650-4fe2-9c3f-c57b17060293" class="element erd Entity" transform="translate(339.9999999999998,285)" style="cursor: move; font-family: 'Source Sans Pro', sans-serif; -webkit-user-select: none;"><g class="rotatable" id="v-280" transform="rotate(0,50,15)" style="cursor: move; font-family: 'Source Sans Pro', sans-serif; -webkit-user-select: none; vector-effect: non-scaling-stroke;"><g class="scalable" id="v-284" transform="scale(1,0.5)" style="cursor: move; font-family: 'Source Sans Pro', sans-serif; -webkit-user-select: none; vector-effect: non-scaling-stroke;"><polygon class="outer" id="v-281" fill="#ffffff" stroke="#000000" stroke-width="2" points="100,0 100,60 0,60 0,0" stroke-dasharray="0" style="cursor: move; font-family: 'Source Sans Pro', sans-serif; -webkit-user-select: none; vector-effect: non-scaling-stroke;"/><polygon class="inner" id="v-282" fill="#2ECC71" stroke="#27AE60" stroke-width="2" points="95,5 95,55 5,55 5,5" display="none" style="cursor: move; font-family: 'Source Sans Pro', sans-serif; -webkit-user-select: none; vector-effect: non-scaling-stroke;"/></g><text id="v-283" y="0.8em" display="null" xml:space="preserve" font-family="Arial" font-size="14" transform="translate(29,7)" font-weight="400" fill="#000000" stroke="#000000" stroke-width="0" style="cursor: move; -webkit-user-select: none; vector-effect: non-scaling-stroke;">Mouse</text></g></g><g id="j_52" model-id="3ba9667e-a521-4664-a85a-9d1641052b6b" class="element uml Interface" fill="#FFFFFF" stroke="none" transform="translate(520,255)" style="cursor: move; font-family: 'Source Sans Pro', sans-serif; -webkit-user-select: none;"><g class="rotatable" id="v-298" transform="rotate(0,50,30)" style="cursor: move; font-family: 'Source Sans Pro', sans-serif; -webkit-user-select: none; vector-effect: non-scaling-stroke;"><g class="scalable" id="v-307" transform="scale(0.5,0.6)" style="cursor: move; font-family: 'Source Sans Pro', sans-serif; -webkit-user-select: none; vector-effect: non-scaling-stroke;"><rect class="uml-class-name-rect" id="v-299" fill="#ffffff" stroke="black" stroke-width="2" height="60" transform="translate(0,0)" width="200" stroke-dasharray="0" rx="0" ry="0" style="cursor: move; font-family: 'Source Sans Pro', sans-serif; -webkit-user-select: none; vector-effect: non-scaling-stroke;"/><rect class="uml-class-attrs-rect" id="v-300" fill="#ffffff" stroke="black" stroke-width="2" height="20" transform="translate(0,60)" width="200" stroke-dasharray="0" rx="1" ry="1" style="cursor: move; font-family: 'Source Sans Pro', sans-serif; -webkit-user-select: none; vector-effect: non-scaling-stroke;"/><rect class="uml-class-methods-rect" id="v-301" fill="#ffffff" stroke="black" stroke-width="2" height="20" transform="translate(0,80)" width="200" stroke-dasharray="0" rx="1" ry="1" style="cursor: move; font-family: 'Source Sans Pro', sans-serif; -webkit-user-select: none; vector-effect: non-scaling-stroke;"/></g><text class="uml-class-name-text" id="v-302" y="0.8em" display="null" xml:space="preserve" text-anchor="middle" font-weight="bold" fill="black" font-size="9" font-family="Times New Roman" transform="translate(50,8.5)" style="cursor: move; -webkit-user-select: none; vector-effect: non-scaling-stroke;"><tspan dy="0em" x="0" id="v-1035" style="cursor: move; -webkit-user-select: none; vector-effect: non-scaling-stroke;">&lt;&lt;Interface&gt;&gt;</tspan><tspan dy="1em" x="0" id="v-1036" style="cursor: move; -webkit-user-select: none; vector-effect: non-scaling-stroke;">Product</tspan></text><text class="uml-class-attrs-text" id="v-305" y="0.8em" display="none" xml:space="preserve" fill="black" font-size="9" font-family="Times New Roman" transform="translate(5,41)" style="cursor: move; -webkit-user-select: none; vector-effect: non-scaling-stroke;"/><text class="uml-class-methods-text" id="v-306" y="0.8em" display="none" xml:space="preserve" fill="black" font-size="9" font-family="Times New Roman" transform="translate(5,53)" style="cursor: move; -webkit-user-select: none; vector-effect: non-scaling-stroke;"/></g></g><g id="j_61" model-id="213673f5-49e5-4781-8a1d-ee80b9fcf3e6" class="link" style="pointer-events: visiblepainted; cursor: -webkit-grabbing; font-family: 'Source Sans Pro', sans-serif; -webkit-user-select: none;"><path class="connection" stroke="black" id="v-438" d="M 520 180 310 180 290 180 290 210 340 220 290 230 290 300 330 300" style="cursor: -webkit-grabbing; font-family: 'Source Sans Pro', sans-serif; -webkit-user-select: none; fill: none; stroke-linejoin: round;"/><path class="marker-source" fill="black" stroke="black" id="v-439" d="M 10 0 L 0 5 L 10 10 z" transform="translate(519.9999951175414,180.0050000003539) scale(0.001,0.001) rotate(-180)" style="cursor: -webkit-grabbing; font-family: 'Source Sans Pro', sans-serif; -webkit-user-select: none; vector-effect: non-scaling-stroke;"/><path class="marker-target" fill="black" stroke="black" id="v-440" d="M 10 0 L 0 5 L 10 10 z" transform="translate(340,305) scale(1,1) rotate(-180)" style="cursor: -webkit-grabbing; font-family: 'Source Sans Pro', sans-serif; -webkit-user-select: none; vector-effect: non-scaling-stroke;"/><path class="connection-wrap" id="v-441" d="M 520 180 310 180 290 180 290 210 340 220 290 230 290 300 330 300" style="cursor: move; font-family: 'Source Sans Pro', sans-serif; opacity: 0; z-index: 0; -webkit-user-select: none; fill: none; stroke: rgb(0, 0, 0); stroke-linecap: round; stroke-linejoin: round; stroke-width: 15px;"/><g class="labels" id="v-442" style="cursor: -webkit-grabbing; font-family: 'Source Sans Pro', sans-serif; -webkit-user-select: none;"/><g class="marker-vertices" id="v-443" style="cursor: move; font-family: 'Source Sans Pro', sans-serif; opacity: 0; z-index: 0; -webkit-user-select: none;"><g class="marker-vertex-group" transform="translate(310, 180)" id="v-871" style="cursor: move; font-family: 'Source Sans Pro', sans-serif; -webkit-user-select: none;"><circle class="marker-vertex" idx="0" r="10" style="cursor: move; font-family: 'Source Sans Pro', sans-serif; -webkit-user-select: none; fill: rgb(26, 188, 156);"/><path class="marker-vertex-remove-area" idx="0" d="M16,5.333c-7.732,0-14,4.701-14,10.5c0,1.982,0.741,3.833,2.016,5.414L2,25.667l5.613-1.441c2.339,1.317,5.237,2.107,8.387,2.107c7.732,0,14-4.701,14-10.5C30,10.034,23.732,5.333,16,5.333z" transform="translate(5, -33)" style="cursor: pointer; font-family: 'Source Sans Pro', sans-serif; opacity: 0.100000001490116; z-index: 0; -webkit-user-select: none;"/><path class="marker-vertex-remove" idx="0" transform="scale(.8) translate(9.5, -37)" d="M24.778,21.419 19.276,15.917 24.777,10.415 21.949,7.585 16.447,13.087 10.945,7.585 8.117,10.415 13.618,15.917 8.116,21.419 10.946,24.248 16.447,18.746 21.948,24.248z" style="cursor: pointer; font-family: 'Source Sans Pro', sans-serif; opacity: 0.100000001490116; z-index: 0; -webkit-user-select: none; fill: rgb(255, 255, 255);"><title style="cursor: pointer; font-family: 'Source Sans Pro', sans-serif; -webkit-user-select: none; fill: rgb(255, 255, 255);">Remove vertex.</title></path></g><g class="marker-vertex-group" transform="translate(290, 180)" id="v-872" style="cursor: move; font-family: 'Source Sans Pro', sans-serif; -webkit-user-select: none;"><circle class="marker-vertex" idx="1" r="10" style="cursor: move; font-family: 'Source Sans Pro', sans-serif; -webkit-user-select: none; fill: rgb(26, 188, 156);"/><path class="marker-vertex-remove-area" idx="1" d="M16,5.333c-7.732,0-14,4.701-14,10.5c0,1.982,0.741,3.833,2.016,5.414L2,25.667l5.613-1.441c2.339,1.317,5.237,2.107,8.387,2.107c7.732,0,14-4.701,14-10.5C30,10.034,23.732,5.333,16,5.333z" transform="translate(5, -33)" style="cursor: pointer; font-family: 'Source Sans Pro', sans-serif; opacity: 0.100000001490116; z-index: 0; -webkit-user-select: none;"/><path class="marker-vertex-remove" idx="1" transform="scale(.8) translate(9.5, -37)" d="M24.778,21.419 19.276,15.917 24.777,10.415 21.949,7.585 16.447,13.087 10.945,7.585 8.117,10.415 13.618,15.917 8.116,21.419 10.946,24.248 16.447,18.746 21.948,24.248z" style="cursor: pointer; font-family: 'Source Sans Pro', sans-serif; opacity: 0.100000001490116; z-index: 0; -webkit-user-select: none; fill: rgb(255, 255, 255);"><title style="cursor: pointer; font-family: 'Source Sans Pro', sans-serif; -webkit-user-select: none; fill: rgb(255, 255, 255);">Remove vertex.</title></path></g><g class="marker-vertex-group" transform="translate(290, 210)" id="v-873" style="cursor: move; font-family: 'Source Sans Pro', sans-serif; -webkit-user-select: none;"><circle class="marker-vertex" idx="2" r="10" style="cursor: move; font-family: 'Source Sans Pro', sans-serif; -webkit-user-select: none; fill: rgb(26, 188, 156);"/><path class="marker-vertex-remove-area" idx="2" d="M16,5.333c-7.732,0-14,4.701-14,10.5c0,1.982,0.741,3.833,2.016,5.414L2,25.667l5.613-1.441c2.339,1.317,5.237,2.107,8.387,2.107c7.732,0,14-4.701,14-10.5C30,10.034,23.732,5.333,16,5.333z" transform="translate(5, -33)" style="cursor: pointer; font-family: 'Source Sans Pro', sans-serif; opacity: 0.100000001490116; z-index: 0; -webkit-user-select: none;"/><path class="marker-vertex-remove" idx="2" transform="scale(.8) translate(9.5, -37)" d="M24.778,21.419 19.276,15.917 24.777,10.415 21.949,7.585 16.447,13.087 10.945,7.585 8.117,10.415 13.618,15.917 8.116,21.419 10.946,24.248 16.447,18.746 21.948,24.248z" style="cursor: pointer; font-family: 'Source Sans Pro', sans-serif; opacity: 0.100000001490116; z-index: 0; -webkit-user-select: none; fill: rgb(255, 255, 255);"><title style="cursor: pointer; font-family: 'Source Sans Pro', sans-serif; -webkit-user-select: none; fill: rgb(255, 255, 255);">Remove vertex.</title></path></g><g class="marker-vertex-group" transform="translate(340, 220)" id="v-874" style="cursor: move; font-family: 'Source Sans Pro', sans-serif; -webkit-user-select: none;"><circle class="marker-vertex" idx="3" r="10" style="cursor: move; font-family: 'Source Sans Pro', sans-serif; -webkit-user-select: none; fill: rgb(26, 188, 156);"/><path class="marker-vertex-remove-area" idx="3" d="M16,5.333c-7.732,0-14,4.701-14,10.5c0,1.982,0.741,3.833,2.016,5.414L2,25.667l5.613-1.441c2.339,1.317,5.237,2.107,8.387,2.107c7.732,0,14-4.701,14-10.5C30,10.034,23.732,5.333,16,5.333z" transform="translate(5, -33)" style="cursor: pointer; font-family: 'Source Sans Pro', sans-serif; opacity: 0.100000001490116; z-index: 0; -webkit-user-select: none;"/><path class="marker-vertex-remove" idx="3" transform="scale(.8) translate(9.5, -37)" d="M24.778,21.419 19.276,15.917 24.777,10.415 21.949,7.585 16.447,13.087 10.945,7.585 8.117,10.415 13.618,15.917 8.116,21.419 10.946,24.248 16.447,18.746 21.948,24.248z" style="cursor: pointer; font-family: 'Source Sans Pro', sans-serif; opacity: 0.100000001490116; z-index: 0; -webkit-user-select: none; fill: rgb(255, 255, 255);"><title style="cursor: pointer; font-family: 'Source Sans Pro', sans-serif; -webkit-user-select: none; fill: rgb(255, 255, 255);">Remove vertex.</title></path></g><g class="marker-vertex-group" transform="translate(290, 230)" id="v-875" style="cursor: move; font-family: 'Source Sans Pro', sans-serif; -webkit-user-select: none;"><circle class="marker-vertex" idx="4" r="10" style="cursor: move; font-family: 'Source Sans Pro', sans-serif; -webkit-user-select: none; fill: rgb(26, 188, 156);"/><path class="marker-vertex-remove-area" idx="4" d="M16,5.333c-7.732,0-14,4.701-14,10.5c0,1.982,0.741,3.833,2.016,5.414L2,25.667l5.613-1.441c2.339,1.317,5.237,2.107,8.387,2.107c7.732,0,14-4.701,14-10.5C30,10.034,23.732,5.333,16,5.333z" transform="translate(5, -33)" style="cursor: pointer; font-family: 'Source Sans Pro', sans-serif; opacity: 0.100000001490116; z-index: 0; -webkit-user-select: none;"/><path class="marker-vertex-remove" idx="4" transform="scale(.8) translate(9.5, -37)" d="M24.778,21.419 19.276,15.917 24.777,10.415 21.949,7.585 16.447,13.087 10.945,7.585 8.117,10.415 13.618,15.917 8.116,21.419 10.946,24.248 16.447,18.746 21.948,24.248z" style="cursor: pointer; font-family: 'Source Sans Pro', sans-serif; opacity: 0.100000001490116; z-index: 0; -webkit-user-select: none; fill: rgb(255, 255, 255);"><title style="cursor: pointer; font-family: 'Source Sans Pro', sans-serif; -webkit-user-select: none; fill: rgb(255, 255, 255);">Remove vertex.</title></path></g><g class="marker-vertex-group" transform="translate(290, 300)" id="v-876" style="cursor: move; font-family: 'Source Sans Pro', sans-serif; -webkit-user-select: none;"><circle class="marker-vertex" idx="5" r="10" style="cursor: move; font-family: 'Source Sans Pro', sans-serif; -webkit-user-select: none; fill: rgb(26, 188, 156);"/><path class="marker-vertex-remove-area" idx="5" d="M16,5.333c-7.732,0-14,4.701-14,10.5c0,1.982,0.741,3.833,2.016,5.414L2,25.667l5.613-1.441c2.339,1.317,5.237,2.107,8.387,2.107c7.732,0,14-4.701,14-10.5C30,10.034,23.732,5.333,16,5.333z" transform="translate(5, -33)" style="cursor: pointer; font-family: 'Source Sans Pro', sans-serif; opacity: 0.100000001490116; z-index: 0; -webkit-user-select: none;"/><path class="marker-vertex-remove" idx="5" transform="scale(.8) translate(9.5, -37)" d="M24.778,21.419 19.276,15.917 24.777,10.415 21.949,7.585 16.447,13.087 10.945,7.585 8.117,10.415 13.618,15.917 8.116,21.419 10.946,24.248 16.447,18.746 21.948,24.248z" style="cursor: pointer; font-family: 'Source Sans Pro', sans-serif; opacity: 0.100000001490116; z-index: 0; -webkit-user-select: none; fill: rgb(255, 255, 255);"><title style="cursor: pointer; font-family: 'Source Sans Pro', sans-serif; -webkit-user-select: none; fill: rgb(255, 255, 255);">Remove vertex.</title></path></g></g><g class="marker-arrowheads" id="v-444" style="cursor: -webkit-grab; font-family: 'Source Sans Pro', sans-serif; opacity: 0; z-index: 0; -webkit-user-select: none;"><g class="marker-arrowhead-group marker-arrowhead-group-source" id="v-447" transform="translate(520,193) scale(1,1) rotate(-180)" style="cursor: -webkit-grab; font-family: 'Source Sans Pro', sans-serif; -webkit-user-select: none;"><path class="marker-arrowhead" end="source" d="M 26 0 L 0 13 L 26 26 z" style="cursor: -webkit-grab; font-family: 'Source Sans Pro', sans-serif; -webkit-user-select: none; fill: rgb(26, 188, 156);"/></g><g class="marker-arrowhead-group marker-arrowhead-group-target" id="v-448" transform="translate(340,313) scale(1,1) rotate(-180)" style="cursor: -webkit-grab; font-family: 'Source Sans Pro', sans-serif; -webkit-user-select: none;"><path class="marker-arrowhead" end="target" d="M 26 0 L 0 13 L 26 26 z" style="cursor: -webkit-grab; font-family: 'Source Sans Pro', sans-serif; -webkit-user-select: none; fill: rgb(26, 188, 156);"/></g></g><g class="link-tools" id="v-445" style="cursor: pointer; font-family: 'Source Sans Pro', sans-serif; opacity: 0; z-index: 0; -webkit-user-select: none;"><g class="link-tool" id="v-446" transform="translate(480, 180.00001525878906) " style="cursor: pointer; font-family: 'Source Sans Pro', sans-serif; -webkit-user-select: none;"><g class="tool-remove" event="remove" style="cursor: pointer; font-family: 'Source Sans Pro', sans-serif; -webkit-user-select: none;"><circle r="11" style="cursor: pointer; font-family: 'Source Sans Pro', sans-serif; -webkit-user-select: none; fill: rgb(255, 0, 0);"/><path transform="scale(.8) translate(-16, -16)" d="M24.778,21.419 19.276,15.917 24.777,10.415 21.949,7.585 16.447,13.087 10.945,7.585 8.117,10.415 13.618,15.917 8.116,21.419 10.946,24.248 16.447,18.746 21.948,24.248z" style="cursor: pointer; font-family: 'Source Sans Pro', sans-serif; -webkit-user-select: none; fill: rgb(255, 255, 255);"/><title style="cursor: pointer; font-family: 'Source Sans Pro', sans-serif; -webkit-user-select: none;">Remove link.</title></g><g class="tool-options" event="link:options" style="cursor: pointer; display: block; font-family: 'Source Sans Pro', sans-serif; -webkit-user-select: none;"><circle r="11" transform="translate(25)" style="cursor: pointer; font-family: 'Source Sans Pro', sans-serif; -webkit-user-select: none;"/><path fill="white" transform="scale(.55) translate(29, -16)" d="M31.229,17.736c0.064-0.571,0.104-1.148,0.104-1.736s-0.04-1.166-0.104-1.737l-4.377-1.557c-0.218-0.716-0.504-1.401-0.851-2.05l1.993-4.192c-0.725-0.91-1.549-1.734-2.458-2.459l-4.193,1.994c-0.647-0.347-1.334-0.632-2.049-0.849l-1.558-4.378C17.165,0.708,16.588,0.667,16,0.667s-1.166,0.041-1.737,0.105L12.707,5.15c-0.716,0.217-1.401,0.502-2.05,0.849L6.464,4.005C5.554,4.73,4.73,5.554,4.005,6.464l1.994,4.192c-0.347,0.648-0.632,1.334-0.849,2.05l-4.378,1.557C0.708,14.834,0.667,15.412,0.667,16s0.041,1.165,0.105,1.736l4.378,1.558c0.217,0.715,0.502,1.401,0.849,2.049l-1.994,4.193c0.725,0.909,1.549,1.733,2.459,2.458l4.192-1.993c0.648,0.347,1.334,0.633,2.05,0.851l1.557,4.377c0.571,0.064,1.148,0.104,1.737,0.104c0.588,0,1.165-0.04,1.736-0.104l1.558-4.377c0.715-0.218,1.399-0.504,2.049-0.851l4.193,1.993c0.909-0.725,1.733-1.549,2.458-2.458l-1.993-4.193c0.347-0.647,0.633-1.334,0.851-2.049L31.229,17.736zM16,20.871c-2.69,0-4.872-2.182-4.872-4.871c0-2.69,2.182-4.872,4.872-4.872c2.689,0,4.871,2.182,4.871,4.872C20.871,18.689,18.689,20.871,16,20.871z" style="cursor: pointer; font-family: 'Source Sans Pro', sans-serif; -webkit-user-select: none;"/><title style="cursor: pointer; font-family: 'Source Sans Pro', sans-serif; -webkit-user-select: none;">Link options.</title></g></g></g></g><g id="j_75" model-id="17a05736-5731-4011-aa4d-b7e5f1c2bcf3" class="link" style="pointer-events: visiblepainted; cursor: -webkit-grabbing; font-family: 'Source Sans Pro', sans-serif; -webkit-user-select: none;"><path class="connection" stroke="black" id="v-889" d="M 440 230 480 230 480 270 510 270" style="cursor: -webkit-grabbing; font-family: 'Source Sans Pro', sans-serif; -webkit-user-select: none; fill: none; stroke-linejoin: round;"/><path class="marker-source" fill="black" stroke="black" id="v-890" d="M 10 0 L 0 5 L 10 10 z" transform="translate(440.0000048824586,229.9949999996461) scale(0.001,0.001) rotate(0)" style="cursor: -webkit-grabbing; font-family: 'Source Sans Pro', sans-serif; -webkit-user-select: none; vector-effect: non-scaling-stroke;"/><path class="marker-target" fill="black" stroke="black" id="v-891" d="M 10 0 L 0 5 L 10 10 z" transform="translate(520,275) scale(1,1) rotate(-180)" style="cursor: -webkit-grabbing; font-family: 'Source Sans Pro', sans-serif; -webkit-user-select: none; vector-effect: non-scaling-stroke;"/><path class="connection-wrap" id="v-892" d="M 440 230 480 230 480 270 510 270" style="cursor: move; font-family: 'Source Sans Pro', sans-serif; opacity: 0; z-index: 0; -webkit-user-select: none; fill: none; stroke: rgb(0, 0, 0); stroke-linecap: round; stroke-linejoin: round; stroke-width: 15px;"/><g class="labels" id="v-893" style="cursor: -webkit-grabbing; font-family: 'Source Sans Pro', sans-serif; -webkit-user-select: none;"/><g class="marker-vertices" id="v-894" style="cursor: move; font-family: 'Source Sans Pro', sans-serif; opacity: 0; z-index: 0; -webkit-user-select: none;"><g class="marker-vertex-group" transform="translate(480, 230)" id="v-1010" style="cursor: move; font-family: 'Source Sans Pro', sans-serif; -webkit-user-select: none;"><circle class="marker-vertex" idx="0" r="10" style="cursor: move; font-family: 'Source Sans Pro', sans-serif; -webkit-user-select: none; fill: rgb(26, 188, 156);"/><path class="marker-vertex-remove-area" idx="0" d="M16,5.333c-7.732,0-14,4.701-14,10.5c0,1.982,0.741,3.833,2.016,5.414L2,25.667l5.613-1.441c2.339,1.317,5.237,2.107,8.387,2.107c7.732,0,14-4.701,14-10.5C30,10.034,23.732,5.333,16,5.333z" transform="translate(5, -33)" style="cursor: pointer; font-family: 'Source Sans Pro', sans-serif; opacity: 0.100000001490116; z-index: 0; -webkit-user-select: none;"/><path class="marker-vertex-remove" idx="0" transform="scale(.8) translate(9.5, -37)" d="M24.778,21.419 19.276,15.917 24.777,10.415 21.949,7.585 16.447,13.087 10.945,7.585 8.117,10.415 13.618,15.917 8.116,21.419 10.946,24.248 16.447,18.746 21.948,24.248z" style="cursor: pointer; font-family: 'Source Sans Pro', sans-serif; opacity: 0.100000001490116; z-index: 0; -webkit-user-select: none; fill: rgb(255, 255, 255);"><title style="cursor: pointer; font-family: 'Source Sans Pro', sans-serif; -webkit-user-select: none; fill: rgb(255, 255, 255);">Remove vertex.</title></path></g><g class="marker-vertex-group" transform="translate(480, 270)" id="v-1011" style="cursor: move; font-family: 'Source Sans Pro', sans-serif; -webkit-user-select: none;"><circle class="marker-vertex" idx="1" r="10" style="cursor: move; font-family: 'Source Sans Pro', sans-serif; -webkit-user-select: none; fill: rgb(26, 188, 156);"/><path class="marker-vertex-remove-area" idx="1" d="M16,5.333c-7.732,0-14,4.701-14,10.5c0,1.982,0.741,3.833,2.016,5.414L2,25.667l5.613-1.441c2.339,1.317,5.237,2.107,8.387,2.107c7.732,0,14-4.701,14-10.5C30,10.034,23.732,5.333,16,5.333z" transform="translate(5, -33)" style="cursor: pointer; font-family: 'Source Sans Pro', sans-serif; opacity: 0.100000001490116; z-index: 0; -webkit-user-select: none;"/><path class="marker-vertex-remove" idx="1" transform="scale(.8) translate(9.5, -37)" d="M24.778,21.419 19.276,15.917 24.777,10.415 21.949,7.585 16.447,13.087 10.945,7.585 8.117,10.415 13.618,15.917 8.116,21.419 10.946,24.248 16.447,18.746 21.948,24.248z" style="cursor: pointer; font-family: 'Source Sans Pro', sans-serif; opacity: 0.100000001490116; z-index: 0; -webkit-user-select: none; fill: rgb(255, 255, 255);"><title style="cursor: pointer; font-family: 'Source Sans Pro', sans-serif; -webkit-user-select: none; fill: rgb(255, 255, 255);">Remove vertex.</title></path></g></g><g class="marker-arrowheads" id="v-895" style="cursor: -webkit-grab; font-family: 'Source Sans Pro', sans-serif; opacity: 0; z-index: 0; -webkit-user-select: none;"><g class="marker-arrowhead-group marker-arrowhead-group-source" id="v-898" transform="translate(440,217) scale(1,1) rotate(0)" style="cursor: -webkit-grab; font-family: 'Source Sans Pro', sans-serif; -webkit-user-select: none;"><path class="marker-arrowhead" end="source" d="M 26 0 L 0 13 L 26 26 z" style="cursor: -webkit-grab; font-family: 'Source Sans Pro', sans-serif; -webkit-user-select: none; fill: rgb(26, 188, 156);"/></g><g class="marker-arrowhead-group marker-arrowhead-group-target" id="v-899" transform="translate(520,283) scale(1,1) rotate(-180)" style="cursor: -webkit-grab; font-family: 'Source Sans Pro', sans-serif; -webkit-user-select: none;"><path class="marker-arrowhead" end="target" d="M 26 0 L 0 13 L 26 26 z" style="cursor: -webkit-grab; font-family: 'Source Sans Pro', sans-serif; -webkit-user-select: none; fill: rgb(26, 188, 156);"/></g></g><g class="link-tools" id="v-896" style="cursor: pointer; font-family: 'Source Sans Pro', sans-serif; opacity: 0; z-index: 0; -webkit-user-select: none;"><g class="link-tool" id="v-897" transform="translate(480, 230) " style="cursor: pointer; font-family: 'Source Sans Pro', sans-serif; -webkit-user-select: none;"><g class="tool-remove" event="remove" style="cursor: pointer; font-family: 'Source Sans Pro', sans-serif; -webkit-user-select: none;"><circle r="11" style="cursor: pointer; font-family: 'Source Sans Pro', sans-serif; -webkit-user-select: none; fill: rgb(255, 0, 0);"/><path transform="scale(.8) translate(-16, -16)" d="M24.778,21.419 19.276,15.917 24.777,10.415 21.949,7.585 16.447,13.087 10.945,7.585 8.117,10.415 13.618,15.917 8.116,21.419 10.946,24.248 16.447,18.746 21.948,24.248z" style="cursor: pointer; font-family: 'Source Sans Pro', sans-serif; -webkit-user-select: none; fill: rgb(255, 255, 255);"/><title style="cursor: pointer; font-family: 'Source Sans Pro', sans-serif; -webkit-user-select: none;">Remove link.</title></g><g class="tool-options" event="link:options" id="v-932" style="cursor: pointer; display: block; font-family: 'Source Sans Pro', sans-serif; -webkit-user-select: none;"><circle r="11" transform="translate(25)" style="cursor: pointer; font-family: 'Source Sans Pro', sans-serif; -webkit-user-select: none;"/><path fill="white" transform="scale(.55) translate(29, -16)" d="M31.229,17.736c0.064-0.571,0.104-1.148,0.104-1.736s-0.04-1.166-0.104-1.737l-4.377-1.557c-0.218-0.716-0.504-1.401-0.851-2.05l1.993-4.192c-0.725-0.91-1.549-1.734-2.458-2.459l-4.193,1.994c-0.647-0.347-1.334-0.632-2.049-0.849l-1.558-4.378C17.165,0.708,16.588,0.667,16,0.667s-1.166,0.041-1.737,0.105L12.707,5.15c-0.716,0.217-1.401,0.502-2.05,0.849L6.464,4.005C5.554,4.73,4.73,5.554,4.005,6.464l1.994,4.192c-0.347,0.648-0.632,1.334-0.849,2.05l-4.378,1.557C0.708,14.834,0.667,15.412,0.667,16s0.041,1.165,0.105,1.736l4.378,1.558c0.217,0.715,0.502,1.401,0.849,2.049l-1.994,4.193c0.725,0.909,1.549,1.733,2.459,2.458l4.192-1.993c0.648,0.347,1.334,0.633,2.05,0.851l1.557,4.377c0.571,0.064,1.148,0.104,1.737,0.104c0.588,0,1.165-0.04,1.736-0.104l1.558-4.377c0.715-0.218,1.399-0.504,2.049-0.851l4.193,1.993c0.909-0.725,1.733-1.549,2.458-2.458l-1.993-4.193c0.347-0.647,0.633-1.334,0.851-2.049L31.229,17.736zM16,20.871c-2.69,0-4.872-2.182-4.872-4.871c0-2.69,2.182-4.872,4.872-4.872c2.689,0,4.871,2.182,4.871,4.872C20.871,18.689,18.689,20.871,16,20.871z" style="cursor: pointer; font-family: 'Source Sans Pro', sans-serif; -webkit-user-select: none;"/><title style="cursor: pointer; font-family: 'Source Sans Pro', sans-serif; -webkit-user-select: none;">Link options.</title></g></g></g></g><g id="j_77" model-id="38f79205-67cf-4466-8069-740cef249a89" class="link" style="pointer-events: visiblepainted; cursor: -webkit-grabbing; font-family: 'Source Sans Pro', sans-serif; -webkit-user-select: none;"><path class="connection" stroke="black" id="v-921" d="M 440 300 510 300" style="cursor: -webkit-grabbing; font-family: 'Source Sans Pro', sans-serif; -webkit-user-select: none; fill: none; stroke-linejoin: round;"/><path class="marker-source" fill="black" stroke="black" id="v-922" d="M 10 0 L 0 5 L 10 10 z" transform="translate(440.0000048824586,299.9949999996461) scale(0.001,0.001) rotate(0)" style="cursor: -webkit-grabbing; font-family: 'Source Sans Pro', sans-serif; -webkit-user-select: none; vector-effect: non-scaling-stroke;"/><path class="marker-target" fill="black" stroke="black" id="v-923" d="M 10 0 L 0 5 L 10 10 z" transform="translate(520,305) scale(1,1) rotate(-180)" style="cursor: -webkit-grabbing; font-family: 'Source Sans Pro', sans-serif; -webkit-user-select: none; vector-effect: non-scaling-stroke;"/><path class="connection-wrap" id="v-924" d="M 440 300 510 300" style="cursor: move; font-family: 'Source Sans Pro', sans-serif; opacity: 0; z-index: 0; -webkit-user-select: none; fill: none; stroke: rgb(0, 0, 0); stroke-linecap: round; stroke-linejoin: round; stroke-width: 15px;"/><g class="labels" id="v-925" style="cursor: -webkit-grabbing; font-family: 'Source Sans Pro', sans-serif; -webkit-user-select: none;"/><g class="marker-vertices" id="v-926" style="cursor: move; font-family: 'Source Sans Pro', sans-serif; opacity: 0; z-index: 0; -webkit-user-select: none;"/><g class="marker-arrowheads" id="v-927" style="cursor: -webkit-grab; font-family: 'Source Sans Pro', sans-serif; opacity: 0; z-index: 0; -webkit-user-select: none;"><g class="marker-arrowhead-group marker-arrowhead-group-source" id="v-930" transform="translate(440,293.5) scale(0.5,0.5) rotate(0)" style="cursor: -webkit-grab; font-family: 'Source Sans Pro', sans-serif; -webkit-user-select: none;"><path class="marker-arrowhead" end="source" d="M 26 0 L 0 13 L 26 26 z" style="cursor: -webkit-grab; font-family: 'Source Sans Pro', sans-serif; -webkit-user-select: none; fill: rgb(26, 188, 156);"/></g><g class="marker-arrowhead-group marker-arrowhead-group-target" id="v-931" transform="translate(520,306.5) scale(0.5,0.5) rotate(-180)" style="cursor: -webkit-grab; font-family: 'Source Sans Pro', sans-serif; -webkit-user-select: none;"><path class="marker-arrowhead" end="target" d="M 26 0 L 0 13 L 26 26 z" style="cursor: -webkit-grab; font-family: 'Source Sans Pro', sans-serif; -webkit-user-select: none; fill: rgb(26, 188, 156);"/></g></g><g class="link-tools" id="v-928" style="cursor: pointer; font-family: 'Source Sans Pro', sans-serif; opacity: 0; z-index: 0; -webkit-user-select: none;"><g class="link-tool" id="v-929" transform="translate(460, 300) scale(.5)" style="cursor: pointer; font-family: 'Source Sans Pro', sans-serif; -webkit-user-select: none;"><g class="tool-remove" event="remove" style="cursor: pointer; font-family: 'Source Sans Pro', sans-serif; -webkit-user-select: none;"><circle r="11" style="cursor: pointer; font-family: 'Source Sans Pro', sans-serif; -webkit-user-select: none; fill: rgb(255, 0, 0);"/><path transform="scale(.8) translate(-16, -16)" d="M24.778,21.419 19.276,15.917 24.777,10.415 21.949,7.585 16.447,13.087 10.945,7.585 8.117,10.415 13.618,15.917 8.116,21.419 10.946,24.248 16.447,18.746 21.948,24.248z" style="cursor: pointer; font-family: 'Source Sans Pro', sans-serif; -webkit-user-select: none; fill: rgb(255, 255, 255);"/><title style="cursor: pointer; font-family: 'Source Sans Pro', sans-serif; -webkit-user-select: none;">Remove link.</title></g><g class="tool-options" event="link:options" id="v-941" style="cursor: pointer; display: block; font-family: 'Source Sans Pro', sans-serif; -webkit-user-select: none;"><circle r="11" transform="translate(25)" style="cursor: pointer; font-family: 'Source Sans Pro', sans-serif; -webkit-user-select: none;"/><path fill="white" transform="scale(.55) translate(29, -16)" d="M31.229,17.736c0.064-0.571,0.104-1.148,0.104-1.736s-0.04-1.166-0.104-1.737l-4.377-1.557c-0.218-0.716-0.504-1.401-0.851-2.05l1.993-4.192c-0.725-0.91-1.549-1.734-2.458-2.459l-4.193,1.994c-0.647-0.347-1.334-0.632-2.049-0.849l-1.558-4.378C17.165,0.708,16.588,0.667,16,0.667s-1.166,0.041-1.737,0.105L12.707,5.15c-0.716,0.217-1.401,0.502-2.05,0.849L6.464,4.005C5.554,4.73,4.73,5.554,4.005,6.464l1.994,4.192c-0.347,0.648-0.632,1.334-0.849,2.05l-4.378,1.557C0.708,14.834,0.667,15.412,0.667,16s0.041,1.165,0.105,1.736l4.378,1.558c0.217,0.715,0.502,1.401,0.849,2.049l-1.994,4.193c0.725,0.909,1.549,1.733,2.459,2.458l4.192-1.993c0.648,0.347,1.334,0.633,2.05,0.851l1.557,4.377c0.571,0.064,1.148,0.104,1.737,0.104c0.588,0,1.165-0.04,1.736-0.104l1.558-4.377c0.715-0.218,1.399-0.504,2.049-0.851l4.193,1.993c0.909-0.725,1.733-1.549,2.458-2.458l-1.993-4.193c0.347-0.647,0.633-1.334,0.851-2.049L31.229,17.736zM16,20.871c-2.69,0-4.872-2.182-4.872-4.871c0-2.69,2.182-4.872,4.872-4.872c2.689,0,4.871,2.182,4.871,4.872C20.871,18.689,18.689,20.871,16,20.871z" style="cursor: pointer; font-family: 'Source Sans Pro', sans-serif; -webkit-user-select: none;"/><title style="cursor: pointer; font-family: 'Source Sans Pro', sans-serif; -webkit-user-select: none;">Link options.</title></g></g></g></g><g id="j_80" model-id="d391bbe9-11cb-4459-a253-017a4c462630" class="element erd IdentifyingRelationship" transform="translate(450,155.99999999999997)" style="cursor: move; font-family: 'Source Sans Pro', sans-serif; -webkit-user-select: none;"><g class="rotatable" id="v-1020" transform="rotate(0,25,25)" style="cursor: move; font-family: 'Source Sans Pro', sans-serif; -webkit-user-select: none; vector-effect: non-scaling-stroke;"><g class="scalable" id="v-1024" transform="scale(0.625,0.625)" style="cursor: move; font-family: 'Source Sans Pro', sans-serif; -webkit-user-select: none; vector-effect: non-scaling-stroke;"><polygon class="outer" id="v-1023" fill="#ffffff" stroke="#000000" stroke-width="2" points="40,0 80,40 40,80 0,40" stroke-dasharray="0" style="cursor: move; font-family: 'Source Sans Pro', sans-serif; -webkit-user-select: none; vector-effect: non-scaling-stroke;"/><polygon class="inner" id="v-1021" display="auto" fill="#ffffff" stroke="#ffffff" stroke-width="2" points="40,5 75,40 40,75 5,40" stroke-dasharray="0" style="cursor: move; font-family: 'Source Sans Pro', sans-serif; -webkit-user-select: none; vector-effect: non-scaling-stroke;"/></g><text id="v-1022" y="0.8em" display="null" xml:space="preserve" font-family="Arial" font-size="8" transform="translate(3,20.5)" font-weight="400" fill="#000000" stroke="#000000" stroke-width="0" style="cursor: move; -webkit-user-select: none; vector-effect: non-scaling-stroke;">&lt;&lt;creates&gt;&gt;</text></g></g></g></svg>