<svg xmlns="http://www.w3.org/2000/svg" xmlns:xlink="http://www.w3.org/1999/xlink" version="1.1" id="v-2" width="100%" height="100%" viewBox="100 414 304 252"><g id="v-3" class="viewport" transform="" style="cursor: -webkit-grabbing; font-family: 'Source Sans Pro', sans-serif; -webkit-user-select: none;"><g id="j_24" model-id="e92b4353-7c48-4bb1-8ed4-4c57ff9c6929" class="element erd Entity" transform="translate(142.99999999999997,456.00000000000006)" style="cursor: move; font-family: 'Source Sans Pro', sans-serif; -webkit-user-select: none;"><g class="rotatable" id="v-192" transform="rotate(0,42,21)" style="cursor: move; font-family: 'Source Sans Pro', sans-serif; -webkit-user-select: none; vector-effect: non-scaling-stroke;"><g class="scalable" id="v-196" transform="scale(0.84,0.7)" style="cursor: move; font-family: 'Source Sans Pro', sans-serif; -webkit-user-select: none; vector-effect: non-scaling-stroke;"><polygon class="outer" id="v-193" fill="#ffffff" stroke="#000000" stroke-width="2" points="100,0 100,60 0,60 0,0" stroke-dasharray="0" style="cursor: move; font-family: 'Source Sans Pro', sans-serif; -webkit-user-select: none; vector-effect: non-scaling-stroke;"/><polygon class="inner" id="v-194" fill="#2ECC71" stroke="#27AE60" stroke-width="2" points="95,5 95,55 5,55 5,5" display="none" style="cursor: move; font-family: 'Source Sans Pro', sans-serif; -webkit-user-select: none; vector-effect: non-scaling-stroke;"/></g><text id="v-195" y="0.8em" display="null" xml:space="preserve" font-family="Arial" font-size="14" font-weight="400" fill="#000000" stroke="#000000" stroke-width="0" transform="translate(24.5,13)" style="cursor: move; -webkit-user-select: none; vector-effect: non-scaling-stroke;">Client</text></g></g><g id="j_31" model-id="1a6cd72d-e728-4a4e-8146-e23ac8b06131" class="element erd Entity" transform="translate(142.99999999999997,582)" style="cursor: move; font-family: 'Source Sans Pro', sans-serif; -webkit-user-select: none;"><g class="rotatable" id="v-223" transform="rotate(0,42,21)" style="cursor: move; font-family: 'Source Sans Pro', sans-serif; -webkit-user-select: none; vector-effect: non-scaling-stroke;"><g class="scalable" id="v-227" transform="scale(0.84,0.7)" style="cursor: move; font-family: 'Source Sans Pro', sans-serif; -webkit-user-select: none; vector-effect: non-scaling-stroke;"><polygon class="outer" id="v-224" fill="#ffffff" stroke="#000000" stroke-width="2" points="100,0 100,60 0,60 0,0" stroke-dasharray="0" style="cursor: move; font-family: 'Source Sans Pro', sans-serif; -webkit-user-select: none; vector-effect: non-scaling-stroke;"/><polygon class="inner" id="v-225" fill="#2ECC71" stroke="#27AE60" stroke-width="2" points="95,5 95,55 5,55 5,5" display="none" style="cursor: move; font-family: 'Source Sans Pro', sans-serif; -webkit-user-select: none; vector-effect: non-scaling-stroke;"/></g><text id="v-226" y="0.8em" display="null" xml:space="preserve" font-family="Arial" font-size="14" font-weight="400" fill="#000000" stroke="#000000" stroke-width="0" transform="translate(9,13)" style="cursor: move; -webkit-user-select: none; vector-effect: non-scaling-stroke;">Repository</text></g></g><g id="j_25" model-id="4c224939-8ad0-4f04-834c-e0531f771876" class="element erd Entity" transform="translate(320,456.00000000000006)" style="cursor: move; font-family: 'Source Sans Pro', sans-serif; -webkit-user-select: none;"><g class="rotatable" id="v-197" transform="rotate(0,42,21)" style="cursor: move; font-family: 'Source Sans Pro', sans-serif; -webkit-user-select: none; vector-effect: non-scaling-stroke;"><g class="scalable" id="v-201" transform="scale(0.84,0.7)" style="cursor: move; font-family: 'Source Sans Pro', sans-serif; -webkit-user-select: none; vector-effect: non-scaling-stroke;"><polygon class="outer" id="v-198" fill="#ffffff" stroke="#000000" stroke-width="2" points="100,0 100,60 0,60 0,0" stroke-dasharray="0" style="cursor: move; font-family: 'Source Sans Pro', sans-serif; -webkit-user-select: none; vector-effect: non-scaling-stroke;"/><polygon class="inner" id="v-199" fill="#2ECC71" stroke="#27AE60" stroke-width="2" points="95,5 95,55 5,55 5,5" display="none" style="cursor: move; font-family: 'Source Sans Pro', sans-serif; -webkit-user-select: none; vector-effect: non-scaling-stroke;"/></g><text id="v-200" y="0.8em" display="null" xml:space="preserve" font-family="Arial" font-size="14" font-weight="400" fill="#000000" stroke="#000000" stroke-width="0" transform="translate(19,13)" style="cursor: move; -webkit-user-select: none; vector-effect: non-scaling-stroke;">Factory</text></g></g><g id="j_30" model-id="edcebe6b-a737-4b70-87ad-74fbf3ab41d0" class="element erd Entity" transform="translate(320,582)" style="cursor: move; font-family: 'Source Sans Pro', sans-serif; -webkit-user-select: none;"><g class="rotatable" id="v-218" transform="rotate(0,42,21)" style="cursor: move; font-family: 'Source Sans Pro', sans-serif; -webkit-user-select: none; vector-effect: non-scaling-stroke;"><g class="scalable" id="v-222" transform="scale(0.84,0.7)" style="cursor: move; font-family: 'Source Sans Pro', sans-serif; -webkit-user-select: none; vector-effect: non-scaling-stroke;"><polygon class="outer" id="v-219" fill="#ffffff" stroke="#000000" stroke-width="2" points="100,0 100,60 0,60 0,0" stroke-dasharray="0" style="cursor: move; font-family: 'Source Sans Pro', sans-serif; -webkit-user-select: none; vector-effect: non-scaling-stroke;"/><polygon class="inner" id="v-220" fill="#2ECC71" stroke="#27AE60" stroke-width="2" points="95,5 95,55 5,55 5,5" display="none" style="cursor: move; font-family: 'Source Sans Pro', sans-serif; -webkit-user-select: none; vector-effect: non-scaling-stroke;"/></g><text id="v-221" y="0.8em" display="null" xml:space="preserve" font-family="Arial" font-size="14" font-weight="400" fill="#000000" stroke="#000000" stroke-width="0" transform="translate(14.5,13)" style="cursor: move; -webkit-user-select: none; vector-effect: non-scaling-stroke;">Gateway</text></g></g><g id="j_33" model-id="07e3cb42-e840-4b44-a5e7-e00e28b7effb" class="element fsa State" fill="#FFFFFF" stroke="none" transform="translate(237,414.00000000000006)" style="cursor: move; font-family: 'Source Sans Pro', sans-serif; -webkit-user-select: none;"><g class="rotatable" id="v-232" transform="rotate(0,31.5,21)" style="cursor: move; font-family: 'Source Sans Pro', sans-serif; -webkit-user-select: none; vector-effect: non-scaling-stroke;"><g class="scalable" id="v-235" transform="scale(1.05,0.7)" style="cursor: move; font-family: 'Source Sans Pro', sans-serif; -webkit-user-select: none; vector-effect: non-scaling-stroke;"><circle id="v-233" stroke-width="3" fill="#ffffff" stroke="black" r="30" transform="translate(30, 30)" stroke-dasharray="0" style="cursor: move; font-family: 'Source Sans Pro', sans-serif; -webkit-user-select: none; vector-effect: non-scaling-stroke;"/></g><text id="v-234" y="0.8em" display="null" xml:space="preserve" font-weight="800" font-size="14" text-anchor="middle" fill="#000000" font-family="Arial" stroke="#000000" stroke-width="0" transform="translate(31.499998092651367,13)" style="cursor: move; -webkit-user-select: none; vector-effect: non-scaling-stroke;">1.create</text></g></g><g id="j_32" model-id="ab01166b-22b3-4a3f-9a6f-f15d93333cd7" class="element fsa State" fill="#FFFFFF" stroke="none" transform="translate(250,490)" style="cursor: move; font-family: 'Source Sans Pro', sans-serif; -webkit-user-select: none;"><g class="rotatable" id="v-228" transform="rotate(0,30,20)" style="cursor: move; font-family: 'Source Sans Pro', sans-serif; -webkit-user-select: none; vector-effect: non-scaling-stroke;"><g class="scalable" id="v-231" transform="scale(1,0.6666666666666666)" style="cursor: move; font-family: 'Source Sans Pro', sans-serif; -webkit-user-select: none; vector-effect: non-scaling-stroke;"><circle id="v-229" stroke-width="3" fill="#ffffff" stroke="black" r="30" transform="translate(30, 30)" stroke-dasharray="0" style="cursor: move; font-family: 'Source Sans Pro', sans-serif; -webkit-user-select: none; vector-effect: non-scaling-stroke;"/></g><text id="v-230" y="0.8em" display="null" xml:space="preserve" font-weight="800" font-size="14" text-anchor="middle" fill="#000000" font-family="Arial" stroke="#000000" stroke-width="0" transform="translate(30,12)" style="cursor: move; -webkit-user-select: none; vector-effect: non-scaling-stroke;">object</text></g></g><g id="j_28" model-id="1e9ba160-6ef1-4303-b9e2-32fd2742c73d" class="element fsa State" fill="#FFFFFF" stroke="none" transform="translate(237,626)" style="cursor: move; font-family: 'Source Sans Pro', sans-serif; -webkit-user-select: none;"><g class="rotatable" id="v-210" transform="rotate(0,35,20)" style="cursor: move; font-family: 'Source Sans Pro', sans-serif; -webkit-user-select: none; vector-effect: non-scaling-stroke;"><g class="scalable" id="v-213" transform="scale(1.1666666666666667,0.6666666666666666)" style="cursor: move; font-family: 'Source Sans Pro', sans-serif; -webkit-user-select: none; vector-effect: non-scaling-stroke;"><circle id="v-211" stroke-width="3" fill="#ffffff" stroke="black" r="30" transform="translate(30, 30)" stroke-dasharray="0" style="cursor: move; font-family: 'Source Sans Pro', sans-serif; -webkit-user-select: none; vector-effect: non-scaling-stroke;"/></g><text id="v-212" y="0.8em" display="null" xml:space="preserve" font-weight="800" font-size="14" text-anchor="middle" fill="#000000" font-family="Arial" stroke="#000000" stroke-width="0" transform="translate(35,12)" style="cursor: move; -webkit-user-select: none; vector-effect: non-scaling-stroke;">3.persist</text></g></g><g id="j_27" model-id="b1d45277-a709-42f9-9419-0a834b2772d6" class="element fsa State" fill="#FFFFFF" stroke="none" transform="translate(100,510)" style="cursor: move; font-family: 'Source Sans Pro', sans-serif; -webkit-user-select: none;"><g class="rotatable" id="v-206" transform="rotate(0,30,20)" style="cursor: move; font-family: 'Source Sans Pro', sans-serif; -webkit-user-select: none; vector-effect: non-scaling-stroke;"><g class="scalable" id="v-209" transform="scale(1,0.6666666666666666)" style="cursor: move; font-family: 'Source Sans Pro', sans-serif; -webkit-user-select: none; vector-effect: non-scaling-stroke;"><circle id="v-207" stroke-width="3" fill="#ffffff" stroke="black" r="30" transform="translate(30, 30)" stroke-dasharray="0" style="cursor: move; font-family: 'Source Sans Pro', sans-serif; -webkit-user-select: none; vector-effect: non-scaling-stroke;"/></g><text id="v-208" y="0.8em" display="null" xml:space="preserve" font-weight="800" font-size="14" text-anchor="middle" fill="#000000" font-family="Arial" stroke="#000000" stroke-width="0" transform="translate(30,12)" style="cursor: move; -webkit-user-select: none; vector-effect: non-scaling-stroke;">2.add</text></g></g><g id="j_34" model-id="b219838e-fe09-4f1b-ad54-9ad603806c05" class="element fsa State" fill="#FFFFFF" stroke="none" transform="translate(280,542)" style="cursor: move; font-family: 'Source Sans Pro', sans-serif; -webkit-user-select: none;"><g class="rotatable" id="v-236" transform="rotate(0,30,20)" style="cursor: move; font-family: 'Source Sans Pro', sans-serif; -webkit-user-select: none; vector-effect: non-scaling-stroke;"><g class="scalable" id="v-239" transform="scale(1,0.6666666666666666)" style="cursor: move; font-family: 'Source Sans Pro', sans-serif; -webkit-user-select: none; vector-effect: non-scaling-stroke;"><circle id="v-237" stroke-width="3" fill="#ffffff" stroke="black" r="30" transform="translate(30, 30)" stroke-dasharray="0" style="cursor: move; font-family: 'Source Sans Pro', sans-serif; -webkit-user-select: none; vector-effect: non-scaling-stroke;"/></g><text id="v-238" y="0.8em" display="null" xml:space="preserve" font-weight="800" font-size="14" text-anchor="middle" fill="#000000" font-family="Arial" stroke="#000000" stroke-width="0" transform="translate(30,12)" style="cursor: move; -webkit-user-select: none; vector-effect: non-scaling-stroke;">raw obj</text></g></g><g id="j_77" model-id="ed41d751-4758-4542-8114-2e808d907b53" class="link" style="pointer-events: visiblepainted; cursor: -webkit-grabbing; font-family: 'Source Sans Pro', sans-serif; -webkit-user-select: none;"><path class="connection" stroke="black" id="v-458" d="M 210 498 210 570" style="cursor: -webkit-grabbing; font-family: 'Source Sans Pro', sans-serif; -webkit-user-select: none; fill: none; stroke-linejoin: round;"/><path class="marker-source" fill="black" stroke="black" id="v-459" d="M 10 0 L 0 5 L 10 10 z" transform="translate(210.0050000003539,498.0000048824586) scale(0.001,0.001) rotate(-270)" style="cursor: -webkit-grabbing; font-family: 'Source Sans Pro', sans-serif; -webkit-user-select: none; vector-effect: non-scaling-stroke;"/><path class="marker-target" fill="black" stroke="black" id="v-460" d="M 10 0 L 0 5 L 10 10 z" transform="translate(205,580) scale(1,1) rotate(-90)" style="cursor: -webkit-grabbing; font-family: 'Source Sans Pro', sans-serif; -webkit-user-select: none; vector-effect: non-scaling-stroke;"/><path class="connection-wrap" id="v-461" d="M 210 498 210 570" style="cursor: move; font-family: 'Source Sans Pro', sans-serif; opacity: 0; z-index: 0; -webkit-user-select: none; fill: none; stroke: rgb(0, 0, 0); stroke-linecap: round; stroke-linejoin: round; stroke-width: 15px;"/><g class="labels" id="v-462" style="cursor: -webkit-grabbing; font-family: 'Source Sans Pro', sans-serif; -webkit-user-select: none;"/><g class="marker-vertices" id="v-463" style="cursor: move; font-family: 'Source Sans Pro', sans-serif; opacity: 0; z-index: 0; -webkit-user-select: none;"/><g class="marker-arrowheads" id="v-464" style="cursor: -webkit-grab; font-family: 'Source Sans Pro', sans-serif; opacity: 0; z-index: 0; -webkit-user-select: none;"><g class="marker-arrowhead-group marker-arrowhead-group-source" id="v-467" transform="translate(216.5,498) scale(0.5,0.5) rotate(-270)" style="cursor: -webkit-grab; font-family: 'Source Sans Pro', sans-serif; -webkit-user-select: none;"><path class="marker-arrowhead" end="source" d="M 26 0 L 0 13 L 26 26 z" style="cursor: -webkit-grab; font-family: 'Source Sans Pro', sans-serif; -webkit-user-select: none; fill: rgb(26, 188, 156);"/></g><g class="marker-arrowhead-group marker-arrowhead-group-target" id="v-468" transform="translate(203.5,580) scale(0.5,0.5) rotate(-90)" style="cursor: -webkit-grab; font-family: 'Source Sans Pro', sans-serif; -webkit-user-select: none;"><path class="marker-arrowhead" end="target" d="M 26 0 L 0 13 L 26 26 z" style="cursor: -webkit-grab; font-family: 'Source Sans Pro', sans-serif; -webkit-user-select: none; fill: rgb(26, 188, 156);"/></g></g><g class="link-tools" id="v-465" style="cursor: pointer; font-family: 'Source Sans Pro', sans-serif; opacity: 0; z-index: 0; -webkit-user-select: none;"><g class="link-tool" id="v-466" transform="translate(210, 518) scale(.5)" style="cursor: pointer; font-family: 'Source Sans Pro', sans-serif; -webkit-user-select: none;"><g class="tool-remove" event="remove" style="cursor: pointer; font-family: 'Source Sans Pro', sans-serif; -webkit-user-select: none;"><circle r="11" style="cursor: pointer; font-family: 'Source Sans Pro', sans-serif; -webkit-user-select: none; fill: rgb(255, 0, 0);"/><path transform="scale(.8) translate(-16, -16)" d="M24.778,21.419 19.276,15.917 24.777,10.415 21.949,7.585 16.447,13.087 10.945,7.585 8.117,10.415 13.618,15.917 8.116,21.419 10.946,24.248 16.447,18.746 21.948,24.248z" style="cursor: pointer; font-family: 'Source Sans Pro', sans-serif; -webkit-user-select: none; fill: rgb(255, 255, 255);"/><title style="cursor: pointer; font-family: 'Source Sans Pro', sans-serif; -webkit-user-select: none;">Remove link.</title></g><g class="tool-options" event="link:options" id="v-549" style="cursor: pointer; display: block; font-family: 'Source Sans Pro', sans-serif; -webkit-user-select: none;"><circle r="11" transform="translate(25)" style="cursor: pointer; font-family: 'Source Sans Pro', sans-serif; -webkit-user-select: none;"/><path fill="white" transform="scale(.55) translate(29, -16)" d="M31.229,17.736c0.064-0.571,0.104-1.148,0.104-1.736s-0.04-1.166-0.104-1.737l-4.377-1.557c-0.218-0.716-0.504-1.401-0.851-2.05l1.993-4.192c-0.725-0.91-1.549-1.734-2.458-2.459l-4.193,1.994c-0.647-0.347-1.334-0.632-2.049-0.849l-1.558-4.378C17.165,0.708,16.588,0.667,16,0.667s-1.166,0.041-1.737,0.105L12.707,5.15c-0.716,0.217-1.401,0.502-2.05,0.849L6.464,4.005C5.554,4.73,4.73,5.554,4.005,6.464l1.994,4.192c-0.347,0.648-0.632,1.334-0.849,2.05l-4.378,1.557C0.708,14.834,0.667,15.412,0.667,16s0.041,1.165,0.105,1.736l4.378,1.558c0.217,0.715,0.502,1.401,0.849,2.049l-1.994,4.193c0.725,0.909,1.549,1.733,2.459,2.458l4.192-1.993c0.648,0.347,1.334,0.633,2.05,0.851l1.557,4.377c0.571,0.064,1.148,0.104,1.737,0.104c0.588,0,1.165-0.04,1.736-0.104l1.558-4.377c0.715-0.218,1.399-0.504,2.049-0.851l4.193,1.993c0.909-0.725,1.733-1.549,2.458-2.458l-1.993-4.193c0.347-0.647,0.633-1.334,0.851-2.049L31.229,17.736zM16,20.871c-2.69,0-4.872-2.182-4.872-4.871c0-2.69,2.182-4.872,4.872-4.872c2.689,0,4.871,2.182,4.871,4.872C20.871,18.689,18.689,20.871,16,20.871z" style="cursor: pointer; font-family: 'Source Sans Pro', sans-serif; -webkit-user-select: none;"/><title style="cursor: pointer; font-family: 'Source Sans Pro', sans-serif; -webkit-user-select: none;">Link options.</title></g></g></g></g><g id="j_82" model-id="92f56b6c-1c79-4a54-9606-232e3b118251" class="link" style="pointer-events: visiblepainted; cursor: -webkit-grabbing; font-family: 'Source Sans Pro', sans-serif; -webkit-user-select: none;"><path class="connection" stroke="black" id="v-480" d="M 227 460 310 460" style="cursor: -webkit-grabbing; font-family: 'Source Sans Pro', sans-serif; -webkit-user-select: none; fill: none; stroke-linejoin: round;"/><path class="marker-source" fill="black" stroke="black" id="v-481" d="M 10 0 L 0 5 L 10 10 z" transform="translate(227.0000048824586,459.9949999996461) scale(0.001,0.001) rotate(0)" style="cursor: -webkit-grabbing; font-family: 'Source Sans Pro', sans-serif; -webkit-user-select: none; vector-effect: non-scaling-stroke;"/><path class="marker-target" fill="black" stroke="black" id="v-482" d="M 10 0 L 0 5 L 10 10 z" transform="translate(320,465) scale(1,1) rotate(-180)" style="cursor: -webkit-grabbing; font-family: 'Source Sans Pro', sans-serif; -webkit-user-select: none; vector-effect: non-scaling-stroke;"/><path class="connection-wrap" id="v-483" d="M 227 460 310 460" style="cursor: move; font-family: 'Source Sans Pro', sans-serif; opacity: 0; z-index: 0; -webkit-user-select: none; fill: none; stroke: rgb(0, 0, 0); stroke-linecap: round; stroke-linejoin: round; stroke-width: 15px;"/><g class="labels" id="v-484" style="cursor: -webkit-grabbing; font-family: 'Source Sans Pro', sans-serif; -webkit-user-select: none;"/><g class="marker-vertices" id="v-485" style="cursor: move; font-family: 'Source Sans Pro', sans-serif; opacity: 0; z-index: 0; -webkit-user-select: none;"/><g class="marker-arrowheads" id="v-486" style="cursor: -webkit-grab; font-family: 'Source Sans Pro', sans-serif; opacity: 0; z-index: 0; -webkit-user-select: none;"><g class="marker-arrowhead-group marker-arrowhead-group-source" id="v-489" transform="translate(227,453.5) scale(0.5,0.5) rotate(0)" style="cursor: -webkit-grab; font-family: 'Source Sans Pro', sans-serif; -webkit-user-select: none;"><path class="marker-arrowhead" end="source" d="M 26 0 L 0 13 L 26 26 z" style="cursor: -webkit-grab; font-family: 'Source Sans Pro', sans-serif; -webkit-user-select: none; fill: rgb(26, 188, 156);"/></g><g class="marker-arrowhead-group marker-arrowhead-group-target" id="v-490" transform="translate(320,466.5) scale(0.5,0.5) rotate(-180)" style="cursor: -webkit-grab; font-family: 'Source Sans Pro', sans-serif; -webkit-user-select: none;"><path class="marker-arrowhead" end="target" d="M 26 0 L 0 13 L 26 26 z" style="cursor: -webkit-grab; font-family: 'Source Sans Pro', sans-serif; -webkit-user-select: none; fill: rgb(26, 188, 156);"/></g></g><g class="link-tools" id="v-487" style="cursor: pointer; font-family: 'Source Sans Pro', sans-serif; opacity: 0; z-index: 0; -webkit-user-select: none;"><g class="link-tool" id="v-488" transform="translate(247, 460) scale(.5)" style="cursor: pointer; font-family: 'Source Sans Pro', sans-serif; -webkit-user-select: none;"><g class="tool-remove" event="remove" style="cursor: pointer; font-family: 'Source Sans Pro', sans-serif; -webkit-user-select: none;"><circle r="11" style="cursor: pointer; font-family: 'Source Sans Pro', sans-serif; -webkit-user-select: none; fill: rgb(255, 0, 0);"/><path transform="scale(.8) translate(-16, -16)" d="M24.778,21.419 19.276,15.917 24.777,10.415 21.949,7.585 16.447,13.087 10.945,7.585 8.117,10.415 13.618,15.917 8.116,21.419 10.946,24.248 16.447,18.746 21.948,24.248z" style="cursor: pointer; font-family: 'Source Sans Pro', sans-serif; -webkit-user-select: none; fill: rgb(255, 255, 255);"/><title style="cursor: pointer; font-family: 'Source Sans Pro', sans-serif; -webkit-user-select: none;">Remove link.</title></g><g class="tool-options" event="link:options" id="v-524" style="cursor: pointer; display: block; font-family: 'Source Sans Pro', sans-serif; -webkit-user-select: none;"><circle r="11" transform="translate(25)" style="cursor: pointer; font-family: 'Source Sans Pro', sans-serif; -webkit-user-select: none;"/><path fill="white" transform="scale(.55) translate(29, -16)" d="M31.229,17.736c0.064-0.571,0.104-1.148,0.104-1.736s-0.04-1.166-0.104-1.737l-4.377-1.557c-0.218-0.716-0.504-1.401-0.851-2.05l1.993-4.192c-0.725-0.91-1.549-1.734-2.458-2.459l-4.193,1.994c-0.647-0.347-1.334-0.632-2.049-0.849l-1.558-4.378C17.165,0.708,16.588,0.667,16,0.667s-1.166,0.041-1.737,0.105L12.707,5.15c-0.716,0.217-1.401,0.502-2.05,0.849L6.464,4.005C5.554,4.73,4.73,5.554,4.005,6.464l1.994,4.192c-0.347,0.648-0.632,1.334-0.849,2.05l-4.378,1.557C0.708,14.834,0.667,15.412,0.667,16s0.041,1.165,0.105,1.736l4.378,1.558c0.217,0.715,0.502,1.401,0.849,2.049l-1.994,4.193c0.725,0.909,1.549,1.733,2.459,2.458l4.192-1.993c0.648,0.347,1.334,0.633,2.05,0.851l1.557,4.377c0.571,0.064,1.148,0.104,1.737,0.104c0.588,0,1.165-0.04,1.736-0.104l1.558-4.377c0.715-0.218,1.399-0.504,2.049-0.851l4.193,1.993c0.909-0.725,1.733-1.549,2.458-2.458l-1.993-4.193c0.347-0.647,0.633-1.334,0.851-2.049L31.229,17.736zM16,20.871c-2.69,0-4.872-2.182-4.872-4.871c0-2.69,2.182-4.872,4.872-4.872c2.689,0,4.871,2.182,4.871,4.872C20.871,18.689,18.689,20.871,16,20.871z" style="cursor: pointer; font-family: 'Source Sans Pro', sans-serif; -webkit-user-select: none;"/><title style="cursor: pointer; font-family: 'Source Sans Pro', sans-serif; -webkit-user-select: none;">Link options.</title></g></g></g></g><g id="j_85" model-id="4739b996-6ce5-4a85-b1f0-8987bae677ee" class="link" style="pointer-events: visiblepainted; cursor: -webkit-grabbing; font-family: 'Source Sans Pro', sans-serif; -webkit-user-select: none;"><path class="connection" stroke="black" id="v-502" d="M 320 490 270 490 237 490" style="cursor: -webkit-grabbing; font-family: 'Source Sans Pro', sans-serif; -webkit-user-select: none; fill: none; stroke-linejoin: round;"/><path class="marker-source" fill="black" stroke="black" id="v-503" d="M 10 0 L 0 5 L 10 10 z" transform="translate(319.9999951175414,490.0050000003539) scale(0.001,0.001) rotate(-180)" style="cursor: -webkit-grabbing; font-family: 'Source Sans Pro', sans-serif; -webkit-user-select: none; vector-effect: non-scaling-stroke;"/><path class="marker-target" fill="black" stroke="black" id="v-504" d="M 10 0 L 0 5 L 10 10 z" transform="translate(227,485) scale(1,1) rotate(0)" style="cursor: -webkit-grabbing; font-family: 'Source Sans Pro', sans-serif; -webkit-user-select: none; vector-effect: non-scaling-stroke;"/><path class="connection-wrap" id="v-505" d="M 320 490 270 490 237 490" style="cursor: move; font-family: 'Source Sans Pro', sans-serif; opacity: 0; z-index: 0; -webkit-user-select: none; fill: none; stroke: rgb(0, 0, 0); stroke-linecap: round; stroke-linejoin: round; stroke-width: 15px;"/><g class="labels" id="v-506" style="cursor: -webkit-grabbing; font-family: 'Source Sans Pro', sans-serif; -webkit-user-select: none;"/><g class="marker-vertices" id="v-507" style="cursor: move; font-family: 'Source Sans Pro', sans-serif; opacity: 0; z-index: 0; -webkit-user-select: none;"><g class="marker-vertex-group" transform="translate(270, 490)" id="v-629" style="cursor: move; font-family: 'Source Sans Pro', sans-serif; -webkit-user-select: none;"><circle class="marker-vertex" idx="0" r="10" style="cursor: move; font-family: 'Source Sans Pro', sans-serif; -webkit-user-select: none; fill: rgb(26, 188, 156);"/><path class="marker-vertex-remove-area" idx="0" d="M16,5.333c-7.732,0-14,4.701-14,10.5c0,1.982,0.741,3.833,2.016,5.414L2,25.667l5.613-1.441c2.339,1.317,5.237,2.107,8.387,2.107c7.732,0,14-4.701,14-10.5C30,10.034,23.732,5.333,16,5.333z" transform="translate(5, -33)" style="cursor: pointer; font-family: 'Source Sans Pro', sans-serif; opacity: 0.100000001490116; z-index: 0; -webkit-user-select: none;"/><path class="marker-vertex-remove" idx="0" transform="scale(.8) translate(9.5, -37)" d="M24.778,21.419 19.276,15.917 24.777,10.415 21.949,7.585 16.447,13.087 10.945,7.585 8.117,10.415 13.618,15.917 8.116,21.419 10.946,24.248 16.447,18.746 21.948,24.248z" style="cursor: pointer; font-family: 'Source Sans Pro', sans-serif; opacity: 0.100000001490116; z-index: 0; -webkit-user-select: none; fill: rgb(255, 255, 255);"><title style="cursor: pointer; font-family: 'Source Sans Pro', sans-serif; -webkit-user-select: none; fill: rgb(255, 255, 255);">Remove vertex.</title></path></g></g><g class="marker-arrowheads" id="v-508" style="cursor: -webkit-grab; font-family: 'Source Sans Pro', sans-serif; opacity: 0; z-index: 0; -webkit-user-select: none;"><g class="marker-arrowhead-group marker-arrowhead-group-source" id="v-511" transform="translate(320,496.5) scale(0.5,0.5) rotate(-180)" style="cursor: -webkit-grab; font-family: 'Source Sans Pro', sans-serif; -webkit-user-select: none;"><path class="marker-arrowhead" end="source" d="M 26 0 L 0 13 L 26 26 z" style="cursor: -webkit-grab; font-family: 'Source Sans Pro', sans-serif; -webkit-user-select: none; fill: rgb(26, 188, 156);"/></g><g class="marker-arrowhead-group marker-arrowhead-group-target" id="v-512" transform="translate(227,483.5) scale(0.5,0.5) rotate(0)" style="cursor: -webkit-grab; font-family: 'Source Sans Pro', sans-serif; -webkit-user-select: none;"><path class="marker-arrowhead" end="target" d="M 26 0 L 0 13 L 26 26 z" style="cursor: -webkit-grab; font-family: 'Source Sans Pro', sans-serif; -webkit-user-select: none; fill: rgb(26, 188, 156);"/></g></g><g class="link-tools" id="v-509" style="cursor: pointer; font-family: 'Source Sans Pro', sans-serif; opacity: 0; z-index: 0; -webkit-user-select: none;"><g class="link-tool" id="v-510" transform="translate(300, 490) scale(.5)" style="cursor: pointer; font-family: 'Source Sans Pro', sans-serif; -webkit-user-select: none;"><g class="tool-remove" event="remove" style="cursor: pointer; font-family: 'Source Sans Pro', sans-serif; -webkit-user-select: none;"><circle r="11" style="cursor: pointer; font-family: 'Source Sans Pro', sans-serif; -webkit-user-select: none; fill: rgb(255, 0, 0);"/><path transform="scale(.8) translate(-16, -16)" d="M24.778,21.419 19.276,15.917 24.777,10.415 21.949,7.585 16.447,13.087 10.945,7.585 8.117,10.415 13.618,15.917 8.116,21.419 10.946,24.248 16.447,18.746 21.948,24.248z" style="cursor: pointer; font-family: 'Source Sans Pro', sans-serif; -webkit-user-select: none; fill: rgb(255, 255, 255);"/><title style="cursor: pointer; font-family: 'Source Sans Pro', sans-serif; -webkit-user-select: none;">Remove link.</title></g><g class="tool-options" event="link:options" id="v-525" style="cursor: pointer; display: block; font-family: 'Source Sans Pro', sans-serif; -webkit-user-select: none;"><circle r="11" transform="translate(25)" style="cursor: pointer; font-family: 'Source Sans Pro', sans-serif; -webkit-user-select: none;"/><path fill="white" transform="scale(.55) translate(29, -16)" d="M31.229,17.736c0.064-0.571,0.104-1.148,0.104-1.736s-0.04-1.166-0.104-1.737l-4.377-1.557c-0.218-0.716-0.504-1.401-0.851-2.05l1.993-4.192c-0.725-0.91-1.549-1.734-2.458-2.459l-4.193,1.994c-0.647-0.347-1.334-0.632-2.049-0.849l-1.558-4.378C17.165,0.708,16.588,0.667,16,0.667s-1.166,0.041-1.737,0.105L12.707,5.15c-0.716,0.217-1.401,0.502-2.05,0.849L6.464,4.005C5.554,4.73,4.73,5.554,4.005,6.464l1.994,4.192c-0.347,0.648-0.632,1.334-0.849,2.05l-4.378,1.557C0.708,14.834,0.667,15.412,0.667,16s0.041,1.165,0.105,1.736l4.378,1.558c0.217,0.715,0.502,1.401,0.849,2.049l-1.994,4.193c0.725,0.909,1.549,1.733,2.459,2.458l4.192-1.993c0.648,0.347,1.334,0.633,2.05,0.851l1.557,4.377c0.571,0.064,1.148,0.104,1.737,0.104c0.588,0,1.165-0.04,1.736-0.104l1.558-4.377c0.715-0.218,1.399-0.504,2.049-0.851l4.193,1.993c0.909-0.725,1.733-1.549,2.458-2.458l-1.993-4.193c0.347-0.647,0.633-1.334,0.851-2.049L31.229,17.736zM16,20.871c-2.69,0-4.872-2.182-4.872-4.871c0-2.69,2.182-4.872,4.872-4.872c2.689,0,4.871,2.182,4.871,4.872C20.871,18.689,18.689,20.871,16,20.871z" style="cursor: pointer; font-family: 'Source Sans Pro', sans-serif; -webkit-user-select: none;"/><title style="cursor: pointer; font-family: 'Source Sans Pro', sans-serif; -webkit-user-select: none;">Link options.</title></g></g></g></g><g id="j_100" model-id="3aec8a9d-d32b-415c-95bd-a3d56d8e0cd3" class="element fsa State" fill="#FFFFFF" stroke="none" transform="translate(210,520)" style="cursor: move; font-family: 'Source Sans Pro', sans-serif; -webkit-user-select: none;"><g class="rotatable" id="v-541" transform="rotate(0,30,20)" style="cursor: move; font-family: 'Source Sans Pro', sans-serif; -webkit-user-select: none; vector-effect: non-scaling-stroke;"><g class="scalable" id="v-544" transform="scale(1,0.6666666666666666)" style="cursor: move; font-family: 'Source Sans Pro', sans-serif; -webkit-user-select: none; vector-effect: non-scaling-stroke;"><circle id="v-542" stroke-width="3" fill="#ffffff" stroke="black" r="30" transform="translate(30, 30)" stroke-dasharray="0" style="cursor: move; font-family: 'Source Sans Pro', sans-serif; -webkit-user-select: none; vector-effect: non-scaling-stroke;"/></g><text id="v-543" y="0.8em" display="null" xml:space="preserve" font-weight="800" font-size="14" text-anchor="middle" fill="#000000" font-family="Arial" stroke="#000000" stroke-width="0" transform="translate(30,12)" style="cursor: move; -webkit-user-select: none; vector-effect: non-scaling-stroke;">object</text></g></g><g id="j_106" model-id="e12a4d17-8af8-4efe-a6ef-5e7af7f59321" class="link" style="pointer-events: visiblepainted; cursor: -webkit-grabbing; font-family: 'Source Sans Pro', sans-serif; -webkit-user-select: none;"><path class="connection" stroke="black" id="v-554" d="M 160 498 160 570" style="cursor: -webkit-grabbing; font-family: 'Source Sans Pro', sans-serif; -webkit-user-select: none; fill: none; stroke-linejoin: round;"/><path class="marker-source" fill="black" stroke="black" id="v-555" d="M 10 0 L 0 5 L 10 10 z" transform="translate(160.0050000003539,498.0000048824586) scale(0.001,0.001) rotate(-270)" style="cursor: -webkit-grabbing; font-family: 'Source Sans Pro', sans-serif; -webkit-user-select: none; vector-effect: non-scaling-stroke;"/><path class="marker-target" fill="black" stroke="black" id="v-556" d="M 10 0 L 0 5 L 10 10 z" transform="translate(155,580) scale(1,1) rotate(-90)" style="cursor: -webkit-grabbing; font-family: 'Source Sans Pro', sans-serif; -webkit-user-select: none; vector-effect: non-scaling-stroke;"/><path class="connection-wrap" id="v-557" d="M 160 498 160 570" style="cursor: move; font-family: 'Source Sans Pro', sans-serif; opacity: 0; z-index: 0; -webkit-user-select: none; fill: none; stroke: rgb(0, 0, 0); stroke-linecap: round; stroke-linejoin: round; stroke-width: 15px;"/><g class="labels" id="v-558" style="cursor: -webkit-grabbing; font-family: 'Source Sans Pro', sans-serif; -webkit-user-select: none;"/><g class="marker-vertices" id="v-559" style="cursor: move; font-family: 'Source Sans Pro', sans-serif; opacity: 0; z-index: 0; -webkit-user-select: none;"/><g class="marker-arrowheads" id="v-560" style="cursor: -webkit-grab; font-family: 'Source Sans Pro', sans-serif; opacity: 0; z-index: 0; -webkit-user-select: none;"><g class="marker-arrowhead-group marker-arrowhead-group-source" id="v-563" transform="translate(166.5,498) scale(0.5,0.5) rotate(-270)" style="cursor: -webkit-grab; font-family: 'Source Sans Pro', sans-serif; -webkit-user-select: none;"><path class="marker-arrowhead" end="source" d="M 26 0 L 0 13 L 26 26 z" style="cursor: -webkit-grab; font-family: 'Source Sans Pro', sans-serif; -webkit-user-select: none; fill: rgb(26, 188, 156);"/></g><g class="marker-arrowhead-group marker-arrowhead-group-target" id="v-564" transform="translate(153.5,580) scale(0.5,0.5) rotate(-90)" style="cursor: -webkit-grab; font-family: 'Source Sans Pro', sans-serif; -webkit-user-select: none;"><path class="marker-arrowhead" end="target" d="M 26 0 L 0 13 L 26 26 z" style="cursor: -webkit-grab; font-family: 'Source Sans Pro', sans-serif; -webkit-user-select: none; fill: rgb(26, 188, 156);"/></g></g><g class="link-tools" id="v-561" style="cursor: pointer; font-family: 'Source Sans Pro', sans-serif; opacity: 0; z-index: 0; -webkit-user-select: none;"><g class="link-tool" id="v-562" transform="translate(160, 518) scale(.5)" style="cursor: pointer; font-family: 'Source Sans Pro', sans-serif; -webkit-user-select: none;"><g class="tool-remove" event="remove" style="cursor: pointer; font-family: 'Source Sans Pro', sans-serif; -webkit-user-select: none;"><circle r="11" style="cursor: pointer; font-family: 'Source Sans Pro', sans-serif; -webkit-user-select: none; fill: rgb(255, 0, 0);"/><path transform="scale(.8) translate(-16, -16)" d="M24.778,21.419 19.276,15.917 24.777,10.415 21.949,7.585 16.447,13.087 10.945,7.585 8.117,10.415 13.618,15.917 8.116,21.419 10.946,24.248 16.447,18.746 21.948,24.248z" style="cursor: pointer; font-family: 'Source Sans Pro', sans-serif; -webkit-user-select: none; fill: rgb(255, 255, 255);"/><title style="cursor: pointer; font-family: 'Source Sans Pro', sans-serif; -webkit-user-select: none;">Remove link.</title></g><g class="tool-options" event="link:options" style="cursor: pointer; display: block; font-family: 'Source Sans Pro', sans-serif; -webkit-user-select: none;"><circle r="11" transform="translate(25)" style="cursor: pointer; font-family: 'Source Sans Pro', sans-serif; -webkit-user-select: none;"/><path fill="white" transform="scale(.55) translate(29, -16)" d="M31.229,17.736c0.064-0.571,0.104-1.148,0.104-1.736s-0.04-1.166-0.104-1.737l-4.377-1.557c-0.218-0.716-0.504-1.401-0.851-2.05l1.993-4.192c-0.725-0.91-1.549-1.734-2.458-2.459l-4.193,1.994c-0.647-0.347-1.334-0.632-2.049-0.849l-1.558-4.378C17.165,0.708,16.588,0.667,16,0.667s-1.166,0.041-1.737,0.105L12.707,5.15c-0.716,0.217-1.401,0.502-2.05,0.849L6.464,4.005C5.554,4.73,4.73,5.554,4.005,6.464l1.994,4.192c-0.347,0.648-0.632,1.334-0.849,2.05l-4.378,1.557C0.708,14.834,0.667,15.412,0.667,16s0.041,1.165,0.105,1.736l4.378,1.558c0.217,0.715,0.502,1.401,0.849,2.049l-1.994,4.193c0.725,0.909,1.549,1.733,2.459,2.458l4.192-1.993c0.648,0.347,1.334,0.633,2.05,0.851l1.557,4.377c0.571,0.064,1.148,0.104,1.737,0.104c0.588,0,1.165-0.04,1.736-0.104l1.558-4.377c0.715-0.218,1.399-0.504,2.049-0.851l4.193,1.993c0.909-0.725,1.733-1.549,2.458-2.458l-1.993-4.193c0.347-0.647,0.633-1.334,0.851-2.049L31.229,17.736zM16,20.871c-2.69,0-4.872-2.182-4.872-4.871c0-2.69,2.182-4.872,4.872-4.872c2.689,0,4.871,2.182,4.871,4.872C20.871,18.689,18.689,20.871,16,20.871z" style="cursor: pointer; font-family: 'Source Sans Pro', sans-serif; -webkit-user-select: none;"/><title style="cursor: pointer; font-family: 'Source Sans Pro', sans-serif; -webkit-user-select: none;">Link options.</title></g></g></g></g><g id="j_109" model-id="affad3a9-f3ad-49d9-86e3-ff9115d5e3ef" class="link" style="pointer-events: visiblepainted; cursor: -webkit-grabbing; font-family: 'Source Sans Pro', sans-serif; -webkit-user-select: none;"><path class="connection" stroke="black" id="v-576" d="M 227 590 310 590" style="cursor: -webkit-grabbing; font-family: 'Source Sans Pro', sans-serif; -webkit-user-select: none; fill: none; stroke-linejoin: round;"/><path class="marker-source" fill="black" stroke="black" id="v-577" d="M 10 0 L 0 5 L 10 10 z" transform="translate(227.0000048824586,589.9949999996461) scale(0.001,0.001) rotate(0)" style="cursor: -webkit-grabbing; font-family: 'Source Sans Pro', sans-serif; -webkit-user-select: none; vector-effect: non-scaling-stroke;"/><path class="marker-target" fill="black" stroke="black" id="v-578" d="M 10 0 L 0 5 L 10 10 z" transform="translate(320,595) scale(1,1) rotate(-180)" style="cursor: -webkit-grabbing; font-family: 'Source Sans Pro', sans-serif; -webkit-user-select: none; vector-effect: non-scaling-stroke;"/><path class="connection-wrap" id="v-579" d="M 227 590 310 590" style="cursor: move; font-family: 'Source Sans Pro', sans-serif; opacity: 0; z-index: 0; -webkit-user-select: none; fill: none; stroke: rgb(0, 0, 0); stroke-linecap: round; stroke-linejoin: round; stroke-width: 15px;"/><g class="labels" id="v-580" style="cursor: -webkit-grabbing; font-family: 'Source Sans Pro', sans-serif; -webkit-user-select: none;"/><g class="marker-vertices" id="v-581" style="cursor: move; font-family: 'Source Sans Pro', sans-serif; opacity: 0; z-index: 0; -webkit-user-select: none;"/><g class="marker-arrowheads" id="v-582" style="cursor: -webkit-grab; font-family: 'Source Sans Pro', sans-serif; opacity: 0; z-index: 0; -webkit-user-select: none;"><g class="marker-arrowhead-group marker-arrowhead-group-source" id="v-585" transform="translate(227,583.5) scale(0.5,0.5) rotate(0)" style="cursor: -webkit-grab; font-family: 'Source Sans Pro', sans-serif; -webkit-user-select: none;"><path class="marker-arrowhead" end="source" d="M 26 0 L 0 13 L 26 26 z" style="cursor: -webkit-grab; font-family: 'Source Sans Pro', sans-serif; -webkit-user-select: none; fill: rgb(26, 188, 156);"/></g><g class="marker-arrowhead-group marker-arrowhead-group-target" id="v-586" transform="translate(320,596.5) scale(0.5,0.5) rotate(-180)" style="cursor: -webkit-grab; font-family: 'Source Sans Pro', sans-serif; -webkit-user-select: none;"><path class="marker-arrowhead" end="target" d="M 26 0 L 0 13 L 26 26 z" style="cursor: -webkit-grab; font-family: 'Source Sans Pro', sans-serif; -webkit-user-select: none; fill: rgb(26, 188, 156);"/></g></g><g class="link-tools" id="v-583" style="cursor: pointer; font-family: 'Source Sans Pro', sans-serif; opacity: 0; z-index: 0; -webkit-user-select: none;"><g class="link-tool" id="v-584" transform="translate(247, 590) scale(.5)" style="cursor: pointer; font-family: 'Source Sans Pro', sans-serif; -webkit-user-select: none;"><g class="tool-remove" event="remove" style="cursor: pointer; font-family: 'Source Sans Pro', sans-serif; -webkit-user-select: none;"><circle r="11" style="cursor: pointer; font-family: 'Source Sans Pro', sans-serif; -webkit-user-select: none; fill: rgb(255, 0, 0);"/><path transform="scale(.8) translate(-16, -16)" d="M24.778,21.419 19.276,15.917 24.777,10.415 21.949,7.585 16.447,13.087 10.945,7.585 8.117,10.415 13.618,15.917 8.116,21.419 10.946,24.248 16.447,18.746 21.948,24.248z" style="cursor: pointer; font-family: 'Source Sans Pro', sans-serif; -webkit-user-select: none; fill: rgb(255, 255, 255);"/><title style="cursor: pointer; font-family: 'Source Sans Pro', sans-serif; -webkit-user-select: none;">Remove link.</title></g><g class="tool-options" event="link:options" id="v-626" style="cursor: pointer; display: block; font-family: 'Source Sans Pro', sans-serif; -webkit-user-select: none;"><circle r="11" transform="translate(25)" style="cursor: pointer; font-family: 'Source Sans Pro', sans-serif; -webkit-user-select: none;"/><path fill="white" transform="scale(.55) translate(29, -16)" d="M31.229,17.736c0.064-0.571,0.104-1.148,0.104-1.736s-0.04-1.166-0.104-1.737l-4.377-1.557c-0.218-0.716-0.504-1.401-0.851-2.05l1.993-4.192c-0.725-0.91-1.549-1.734-2.458-2.459l-4.193,1.994c-0.647-0.347-1.334-0.632-2.049-0.849l-1.558-4.378C17.165,0.708,16.588,0.667,16,0.667s-1.166,0.041-1.737,0.105L12.707,5.15c-0.716,0.217-1.401,0.502-2.05,0.849L6.464,4.005C5.554,4.73,4.73,5.554,4.005,6.464l1.994,4.192c-0.347,0.648-0.632,1.334-0.849,2.05l-4.378,1.557C0.708,14.834,0.667,15.412,0.667,16s0.041,1.165,0.105,1.736l4.378,1.558c0.217,0.715,0.502,1.401,0.849,2.049l-1.994,4.193c0.725,0.909,1.549,1.733,2.459,2.458l4.192-1.993c0.648,0.347,1.334,0.633,2.05,0.851l1.557,4.377c0.571,0.064,1.148,0.104,1.737,0.104c0.588,0,1.165-0.04,1.736-0.104l1.558-4.377c0.715-0.218,1.399-0.504,2.049-0.851l4.193,1.993c0.909-0.725,1.733-1.549,2.458-2.458l-1.993-4.193c0.347-0.647,0.633-1.334,0.851-2.049L31.229,17.736zM16,20.871c-2.69,0-4.872-2.182-4.872-4.871c0-2.69,2.182-4.872,4.872-4.872c2.689,0,4.871,2.182,4.871,4.872C20.871,18.689,18.689,20.871,16,20.871z" style="cursor: pointer; font-family: 'Source Sans Pro', sans-serif; -webkit-user-select: none;"/><title style="cursor: pointer; font-family: 'Source Sans Pro', sans-serif; -webkit-user-select: none;">Link options.</title></g></g></g></g><g id="j_113" model-id="42c81bbb-4950-4fa3-8d00-39777e37ce5f" class="link" style="pointer-events: visiblepainted; cursor: -webkit-grabbing; font-family: 'Source Sans Pro', sans-serif; -webkit-user-select: none;"><path class="connection" stroke="black" id="v-598" d="M 227 620 290 620 310 620" style="cursor: -webkit-grabbing; font-family: 'Source Sans Pro', sans-serif; -webkit-user-select: none; fill: none; stroke-linejoin: round;"/><path class="marker-source" fill="black" stroke="black" id="v-599" d="M 10 0 L 0 5 L 10 10 z" transform="translate(227.0000048824586,619.9949999996461) scale(0.001,0.001) rotate(0)" style="cursor: -webkit-grabbing; font-family: 'Source Sans Pro', sans-serif; -webkit-user-select: none; vector-effect: non-scaling-stroke;"/><path class="marker-target" fill="black" stroke="black" id="v-600" d="M 10 0 L 0 5 L 10 10 z" transform="translate(320,625) scale(1,1) rotate(-180)" style="cursor: -webkit-grabbing; font-family: 'Source Sans Pro', sans-serif; -webkit-user-select: none; vector-effect: non-scaling-stroke;"/><path class="connection-wrap" id="v-601" d="M 227 620 290 620 310 620" style="cursor: move; font-family: 'Source Sans Pro', sans-serif; opacity: 0; z-index: 0; -webkit-user-select: none; fill: none; stroke: rgb(0, 0, 0); stroke-linecap: round; stroke-linejoin: round; stroke-width: 15px;"/><g class="labels" id="v-602" style="cursor: -webkit-grabbing; font-family: 'Source Sans Pro', sans-serif; -webkit-user-select: none;"/><g class="marker-vertices" id="v-603" style="cursor: move; font-family: 'Source Sans Pro', sans-serif; opacity: 0; z-index: 0; -webkit-user-select: none;"><g class="marker-vertex-group" transform="translate(290, 620)" id="v-624" style="cursor: move; font-family: 'Source Sans Pro', sans-serif; -webkit-user-select: none;"><circle class="marker-vertex" idx="0" r="10" style="cursor: move; font-family: 'Source Sans Pro', sans-serif; -webkit-user-select: none; fill: rgb(26, 188, 156);"/><path class="marker-vertex-remove-area" idx="0" d="M16,5.333c-7.732,0-14,4.701-14,10.5c0,1.982,0.741,3.833,2.016,5.414L2,25.667l5.613-1.441c2.339,1.317,5.237,2.107,8.387,2.107c7.732,0,14-4.701,14-10.5C30,10.034,23.732,5.333,16,5.333z" transform="translate(5, -33)" style="cursor: pointer; font-family: 'Source Sans Pro', sans-serif; opacity: 0.100000001490116; z-index: 0; -webkit-user-select: none;"/><path class="marker-vertex-remove" idx="0" transform="scale(.8) translate(9.5, -37)" d="M24.778,21.419 19.276,15.917 24.777,10.415 21.949,7.585 16.447,13.087 10.945,7.585 8.117,10.415 13.618,15.917 8.116,21.419 10.946,24.248 16.447,18.746 21.948,24.248z" style="cursor: pointer; font-family: 'Source Sans Pro', sans-serif; opacity: 0.100000001490116; z-index: 0; -webkit-user-select: none; fill: rgb(255, 255, 255);"><title style="cursor: pointer; font-family: 'Source Sans Pro', sans-serif; -webkit-user-select: none; fill: rgb(255, 255, 255);">Remove vertex.</title></path></g></g><g class="marker-arrowheads" id="v-604" style="cursor: -webkit-grab; font-family: 'Source Sans Pro', sans-serif; opacity: 0; z-index: 0; -webkit-user-select: none;"><g class="marker-arrowhead-group marker-arrowhead-group-source" id="v-607" transform="translate(227,613.5) scale(0.5,0.5) rotate(0)" style="cursor: -webkit-grab; font-family: 'Source Sans Pro', sans-serif; -webkit-user-select: none;"><path class="marker-arrowhead" end="source" d="M 26 0 L 0 13 L 26 26 z" style="cursor: -webkit-grab; font-family: 'Source Sans Pro', sans-serif; -webkit-user-select: none; fill: rgb(26, 188, 156);"/></g><g class="marker-arrowhead-group marker-arrowhead-group-target" id="v-608" transform="translate(320,626.5) scale(0.5,0.5) rotate(-180)" style="cursor: -webkit-grab; font-family: 'Source Sans Pro', sans-serif; -webkit-user-select: none;"><path class="marker-arrowhead" end="target" d="M 26 0 L 0 13 L 26 26 z" style="cursor: -webkit-grab; font-family: 'Source Sans Pro', sans-serif; -webkit-user-select: none; fill: rgb(26, 188, 156);"/></g></g><g class="link-tools" id="v-605" style="cursor: pointer; font-family: 'Source Sans Pro', sans-serif; opacity: 0; z-index: 0; -webkit-user-select: none;"><g class="link-tool" id="v-606" transform="translate(247, 620) scale(.5)" style="cursor: pointer; font-family: 'Source Sans Pro', sans-serif; -webkit-user-select: none;"><g class="tool-remove" event="remove" style="cursor: pointer; font-family: 'Source Sans Pro', sans-serif; -webkit-user-select: none;"><circle r="11" style="cursor: pointer; font-family: 'Source Sans Pro', sans-serif; -webkit-user-select: none; fill: rgb(255, 0, 0);"/><path transform="scale(.8) translate(-16, -16)" d="M24.778,21.419 19.276,15.917 24.777,10.415 21.949,7.585 16.447,13.087 10.945,7.585 8.117,10.415 13.618,15.917 8.116,21.419 10.946,24.248 16.447,18.746 21.948,24.248z" style="cursor: pointer; font-family: 'Source Sans Pro', sans-serif; -webkit-user-select: none; fill: rgb(255, 255, 255);"/><title style="cursor: pointer; font-family: 'Source Sans Pro', sans-serif; -webkit-user-select: none;">Remove link.</title></g><g class="tool-options" event="link:options" style="cursor: pointer; display: block; font-family: 'Source Sans Pro', sans-serif; -webkit-user-select: none;"><circle r="11" transform="translate(25)" style="cursor: pointer; font-family: 'Source Sans Pro', sans-serif; -webkit-user-select: none;"/><path fill="white" transform="scale(.55) translate(29, -16)" d="M31.229,17.736c0.064-0.571,0.104-1.148,0.104-1.736s-0.04-1.166-0.104-1.737l-4.377-1.557c-0.218-0.716-0.504-1.401-0.851-2.05l1.993-4.192c-0.725-0.91-1.549-1.734-2.458-2.459l-4.193,1.994c-0.647-0.347-1.334-0.632-2.049-0.849l-1.558-4.378C17.165,0.708,16.588,0.667,16,0.667s-1.166,0.041-1.737,0.105L12.707,5.15c-0.716,0.217-1.401,0.502-2.05,0.849L6.464,4.005C5.554,4.73,4.73,5.554,4.005,6.464l1.994,4.192c-0.347,0.648-0.632,1.334-0.849,2.05l-4.378,1.557C0.708,14.834,0.667,15.412,0.667,16s0.041,1.165,0.105,1.736l4.378,1.558c0.217,0.715,0.502,1.401,0.849,2.049l-1.994,4.193c0.725,0.909,1.549,1.733,2.459,2.458l4.192-1.993c0.648,0.347,1.334,0.633,2.05,0.851l1.557,4.377c0.571,0.064,1.148,0.104,1.737,0.104c0.588,0,1.165-0.04,1.736-0.104l1.558-4.377c0.715-0.218,1.399-0.504,2.049-0.851l4.193,1.993c0.909-0.725,1.733-1.549,2.458-2.458l-1.993-4.193c0.347-0.647,0.633-1.334,0.851-2.049L31.229,17.736zM16,20.871c-2.69,0-4.872-2.182-4.872-4.871c0-2.69,2.182-4.872,4.872-4.872c2.689,0,4.871,2.182,4.871,4.872C20.871,18.689,18.689,20.871,16,20.871z" style="cursor: pointer; font-family: 'Source Sans Pro', sans-serif; -webkit-user-select: none;"/><title style="cursor: pointer; font-family: 'Source Sans Pro', sans-serif; -webkit-user-select: none;">Link options.</title></g></g></g></g></g><defs id="v-4" style="cursor: -webkit-grabbing; font-family: 'Source Sans Pro', sans-serif; -webkit-user-select: none;"/></svg>