<svg xmlns="http://www.w3.org/2000/svg" xmlns:xlink="http://www.w3.org/1999/xlink" version="1.1" id="v-2" width="100%" height="100%" viewBox="250 350 510 230"><defs id="v-4" style="cursor: -webkit-grabbing; font-family: 'Source Sans Pro', sans-serif; -webkit-user-select: none;"/><g id="v-3" class="viewport" transform="" style="cursor: -webkit-grabbing; font-family: 'Source Sans Pro', sans-serif; -webkit-user-select: none;"><g id="j_24" model-id="b185a4a3-a61b-4d65-8d6f-98e159f41b79" class="element erd Entity" transform="translate(250,360)" style="cursor: move; font-family: 'Source Sans Pro', sans-serif; -webkit-user-select: none;"><g class="rotatable" id="v-189" transform="rotate(0,45,30)" style="cursor: move; font-family: 'Source Sans Pro', sans-serif; -webkit-user-select: none; vector-effect: non-scaling-stroke;"><g class="scalable" id="v-193" transform="scale(0.9,1)" style="cursor: move; font-family: 'Source Sans Pro', sans-serif; -webkit-user-select: none; vector-effect: non-scaling-stroke;"><polygon class="outer" id="v-190" fill="#ffffff" stroke="#000000" stroke-width="2" points="100,0 100,60 0,60 0,0" stroke-dasharray="0" style="cursor: move; font-family: 'Source Sans Pro', sans-serif; -webkit-user-select: none; vector-effect: non-scaling-stroke;"/><polygon class="inner" id="v-191" fill="#2ECC71" stroke="#27AE60" stroke-width="2" points="95,5 95,55 5,55 5,5" display="none" style="cursor: move; font-family: 'Source Sans Pro', sans-serif; -webkit-user-select: none; vector-effect: non-scaling-stroke;"/></g><text id="v-192" y="0.8em" display="null" xml:space="preserve" font-family="Arial" font-size="14" fill="#000000" font-weight="400" stroke="#000000" stroke-width="0" transform="translate(27.5,22)" style="cursor: move; -webkit-user-select: none; vector-effect: non-scaling-stroke;">Client</text></g></g><g id="j_31" model-id="e63b79b6-3c09-43a5-879f-ccd9872d56e9" class="element erd Entity" transform="translate(460,360)" style="cursor: move; font-family: 'Source Sans Pro', sans-serif; -webkit-user-select: none;"><g class="rotatable" id="v-224" transform="rotate(0,45,30)" style="cursor: move; font-family: 'Source Sans Pro', sans-serif; -webkit-user-select: none; vector-effect: non-scaling-stroke;"><g class="scalable" id="v-228" transform="scale(0.9,1)" style="cursor: move; font-family: 'Source Sans Pro', sans-serif; -webkit-user-select: none; vector-effect: non-scaling-stroke;"><polygon class="outer" id="v-225" fill="#ffffff" stroke="#000000" stroke-width="2" points="100,0 100,60 0,60 0,0" stroke-dasharray="0" style="cursor: move; font-family: 'Source Sans Pro', sans-serif; -webkit-user-select: none; vector-effect: non-scaling-stroke;"/><polygon class="inner" id="v-226" fill="#2ECC71" stroke="#27AE60" stroke-width="2" points="95,5 95,55 5,55 5,5" display="none" style="cursor: move; font-family: 'Source Sans Pro', sans-serif; -webkit-user-select: none; vector-effect: non-scaling-stroke;"/></g><text id="v-227" y="0.8em" display="null" xml:space="preserve" font-family="Arial" font-size="14" fill="#000000" font-weight="600" stroke="#000000" stroke-width="0" transform="translate(8.5,22)" style="cursor: move; -webkit-user-select: none; vector-effect: non-scaling-stroke;">Repository</text></g></g><g id="j_25" model-id="8c37ba0d-997c-41e1-ab52-ee2d83a28763" class="element erd Entity" transform="translate(670,360)" style="cursor: move; font-family: 'Source Sans Pro', sans-serif; -webkit-user-select: none;"><g class="rotatable" id="v-194" transform="rotate(0,45,30)" style="cursor: move; font-family: 'Source Sans Pro', sans-serif; -webkit-user-select: none; vector-effect: non-scaling-stroke;"><g class="scalable" id="v-198" transform="scale(0.9,1)" style="cursor: move; font-family: 'Source Sans Pro', sans-serif; -webkit-user-select: none; vector-effect: non-scaling-stroke;"><polygon class="outer" id="v-195" fill="#ffffff" stroke="#000000" stroke-width="2" points="100,0 100,60 0,60 0,0" stroke-dasharray="0" style="cursor: move; font-family: 'Source Sans Pro', sans-serif; -webkit-user-select: none; vector-effect: non-scaling-stroke;"/><polygon class="inner" id="v-196" fill="#2ECC71" stroke="#27AE60" stroke-width="2" points="95,5 95,55 5,55 5,5" display="none" style="cursor: move; font-family: 'Source Sans Pro', sans-serif; -webkit-user-select: none; vector-effect: non-scaling-stroke;"/></g><text id="v-197" y="0.8em" display="null" xml:space="preserve" font-family="Arial" font-size="14" fill="#000000" font-weight="400" stroke="#000000" stroke-width="0" transform="translate(22,22)" style="cursor: move; -webkit-user-select: none; vector-effect: non-scaling-stroke;">Factory</text></g></g><g id="j_34" model-id="8ebb5d5e-10bb-4c59-b242-c76b3ba54224" class="link" style="cursor: -webkit-grabbing; font-family: 'Source Sans Pro', sans-serif; -webkit-user-select: none;"><path class="connection" stroke="black" id="v-239" d="M 460 410 360 410" style="cursor: -webkit-grabbing; font-family: 'Source Sans Pro', sans-serif; -webkit-user-select: none; fill: none; stroke-linejoin: round;"/><path class="marker-source" fill="black" stroke="black" id="v-240" d="M 10 0 L 0 5 L 10 10 z" transform="translate(459.9999951175414,410.0050000003539) scale(0.001,0.001) rotate(-180)" style="cursor: -webkit-grabbing; font-family: 'Source Sans Pro', sans-serif; -webkit-user-select: none; vector-effect: non-scaling-stroke;"/><path class="marker-target" fill="black" stroke="black" id="v-241" d="M 10 0 L 0 5 L 10 10 z" transform="translate(350,405) scale(1,1) rotate(0)" style="cursor: -webkit-grabbing; font-family: 'Source Sans Pro', sans-serif; -webkit-user-select: none; vector-effect: non-scaling-stroke;"/><path class="connection-wrap" id="v-242" d="M 460 410 360 410" style="cursor: move; font-family: 'Source Sans Pro', sans-serif; opacity: 0; z-index: 0; -webkit-user-select: none; fill: none; stroke: rgb(0, 0, 0); stroke-linecap: round; stroke-linejoin: round; stroke-width: 15px;"/><g class="labels" id="v-243" style="cursor: -webkit-grabbing; font-family: 'Source Sans Pro', sans-serif; -webkit-user-select: none;"/><g class="marker-vertices" id="v-244" style="cursor: move; font-family: 'Source Sans Pro', sans-serif; opacity: 0; z-index: 0; -webkit-user-select: none;"/><g class="marker-arrowheads" id="v-245" style="cursor: -webkit-grab; font-family: 'Source Sans Pro', sans-serif; opacity: 0; z-index: 0; -webkit-user-select: none;"><g class="marker-arrowhead-group marker-arrowhead-group-source" id="v-248" transform="translate(460,423) scale(1,1) rotate(-180)" style="cursor: -webkit-grab; font-family: 'Source Sans Pro', sans-serif; -webkit-user-select: none;"><path class="marker-arrowhead" end="source" d="M 26 0 L 0 13 L 26 26 z" style="cursor: -webkit-grab; font-family: 'Source Sans Pro', sans-serif; -webkit-user-select: none; fill: rgb(26, 188, 156);"/></g><g class="marker-arrowhead-group marker-arrowhead-group-target" id="v-249" transform="translate(350,397) scale(1,1) rotate(0)" style="cursor: -webkit-grab; font-family: 'Source Sans Pro', sans-serif; -webkit-user-select: none;"><path class="marker-arrowhead" end="target" d="M 26 0 L 0 13 L 26 26 z" style="cursor: -webkit-grab; font-family: 'Source Sans Pro', sans-serif; -webkit-user-select: none; fill: rgb(26, 188, 156);"/></g></g><g class="link-tools" id="v-246" style="cursor: pointer; font-family: 'Source Sans Pro', sans-serif; opacity: 0; z-index: 0; -webkit-user-select: none;"><g class="link-tool" id="v-247" transform="translate(420, 410) " style="cursor: pointer; font-family: 'Source Sans Pro', sans-serif; -webkit-user-select: none;"><g class="tool-remove" event="remove" style="cursor: pointer; font-family: 'Source Sans Pro', sans-serif; -webkit-user-select: none;"><circle r="11" style="cursor: pointer; font-family: 'Source Sans Pro', sans-serif; -webkit-user-select: none; fill: rgb(255, 0, 0);"/><path transform="scale(.8) translate(-16, -16)" d="M24.778,21.419 19.276,15.917 24.777,10.415 21.949,7.585 16.447,13.087 10.945,7.585 8.117,10.415 13.618,15.917 8.116,21.419 10.946,24.248 16.447,18.746 21.948,24.248z" style="cursor: pointer; font-family: 'Source Sans Pro', sans-serif; -webkit-user-select: none; fill: rgb(255, 255, 255);"/><title style="cursor: pointer; font-family: 'Source Sans Pro', sans-serif; -webkit-user-select: none;">Remove link.</title></g><g class="tool-options" event="link:options" style="cursor: pointer; display: block; font-family: 'Source Sans Pro', sans-serif; -webkit-user-select: none;"><circle r="11" transform="translate(25)" style="cursor: pointer; font-family: 'Source Sans Pro', sans-serif; -webkit-user-select: none;"/><path fill="white" transform="scale(.55) translate(29, -16)" d="M31.229,17.736c0.064-0.571,0.104-1.148,0.104-1.736s-0.04-1.166-0.104-1.737l-4.377-1.557c-0.218-0.716-0.504-1.401-0.851-2.05l1.993-4.192c-0.725-0.91-1.549-1.734-2.458-2.459l-4.193,1.994c-0.647-0.347-1.334-0.632-2.049-0.849l-1.558-4.378C17.165,0.708,16.588,0.667,16,0.667s-1.166,0.041-1.737,0.105L12.707,5.15c-0.716,0.217-1.401,0.502-2.05,0.849L6.464,4.005C5.554,4.73,4.73,5.554,4.005,6.464l1.994,4.192c-0.347,0.648-0.632,1.334-0.849,2.05l-4.378,1.557C0.708,14.834,0.667,15.412,0.667,16s0.041,1.165,0.105,1.736l4.378,1.558c0.217,0.715,0.502,1.401,0.849,2.049l-1.994,4.193c0.725,0.909,1.549,1.733,2.459,2.458l4.192-1.993c0.648,0.347,1.334,0.633,2.05,0.851l1.557,4.377c0.571,0.064,1.148,0.104,1.737,0.104c0.588,0,1.165-0.04,1.736-0.104l1.558-4.377c0.715-0.218,1.399-0.504,2.049-0.851l4.193,1.993c0.909-0.725,1.733-1.549,2.458-2.458l-1.993-4.193c0.347-0.647,0.633-1.334,0.851-2.049L31.229,17.736zM16,20.871c-2.69,0-4.872-2.182-4.872-4.871c0-2.69,2.182-4.872,4.872-4.872c2.689,0,4.871,2.182,4.871,4.872C20.871,18.689,18.689,20.871,16,20.871z" style="cursor: pointer; font-family: 'Source Sans Pro', sans-serif; -webkit-user-select: none;"/><title style="cursor: pointer; font-family: 'Source Sans Pro', sans-serif; -webkit-user-select: none;">Link options.</title></g></g></g></g><g id="j_37" model-id="604582cc-479c-453c-8dd5-7e0f71ae434b" class="link" style="cursor: -webkit-grabbing; font-family: 'Source Sans Pro', sans-serif; -webkit-user-select: none;"><path class="connection" stroke="black" id="v-272" d="M 340 370 440 370" style="cursor: -webkit-grabbing; font-family: 'Source Sans Pro', sans-serif; -webkit-user-select: none; fill: none; stroke-linejoin: round;"/><path class="marker-source" fill="black" stroke="black" id="v-273" d="M 10 0 L 0 5 L 10 10 z" transform="translate(340.0000048824586,369.9949999996461) scale(0.001,0.001) rotate(0)" style="cursor: -webkit-grabbing; font-family: 'Source Sans Pro', sans-serif; -webkit-user-select: none; vector-effect: non-scaling-stroke;"/><path class="marker-target" fill="black" stroke="black" id="v-274" d="M 10 0 L 0 5 L 10 10 z" transform="translate(450,375) scale(1,1) rotate(-180)" style="cursor: -webkit-grabbing; font-family: 'Source Sans Pro', sans-serif; -webkit-user-select: none; vector-effect: non-scaling-stroke;"/><path class="connection-wrap" id="v-275" d="M 340 370 440 370" style="cursor: move; font-family: 'Source Sans Pro', sans-serif; opacity: 0; z-index: 0; -webkit-user-select: none; fill: none; stroke: rgb(0, 0, 0); stroke-linecap: round; stroke-linejoin: round; stroke-width: 15px;"/><g class="labels" id="v-276" style="cursor: -webkit-grabbing; font-family: 'Source Sans Pro', sans-serif; -webkit-user-select: none;"/><g class="marker-vertices" id="v-277" style="cursor: move; font-family: 'Source Sans Pro', sans-serif; opacity: 0; z-index: 0; -webkit-user-select: none;"/><g class="marker-arrowheads" id="v-278" style="cursor: -webkit-grab; font-family: 'Source Sans Pro', sans-serif; opacity: 0; z-index: 0; -webkit-user-select: none;"><g class="marker-arrowhead-group marker-arrowhead-group-source" id="v-281" transform="translate(340,357) scale(1,1) rotate(0)" style="cursor: -webkit-grab; font-family: 'Source Sans Pro', sans-serif; -webkit-user-select: none;"><path class="marker-arrowhead" end="source" d="M 26 0 L 0 13 L 26 26 z" style="cursor: -webkit-grab; font-family: 'Source Sans Pro', sans-serif; -webkit-user-select: none; fill: rgb(26, 188, 156);"/></g><g class="marker-arrowhead-group marker-arrowhead-group-target" id="v-282" transform="translate(450,383) scale(1,1) rotate(-180)" style="cursor: -webkit-grab; font-family: 'Source Sans Pro', sans-serif; -webkit-user-select: none;"><path class="marker-arrowhead" end="target" d="M 26 0 L 0 13 L 26 26 z" style="cursor: -webkit-grab; font-family: 'Source Sans Pro', sans-serif; -webkit-user-select: none; fill: rgb(26, 188, 156);"/></g></g><g class="link-tools" id="v-279" style="cursor: pointer; font-family: 'Source Sans Pro', sans-serif; opacity: 0; z-index: 0; -webkit-user-select: none;"><g class="link-tool" id="v-280" transform="translate(380, 370) " style="cursor: pointer; font-family: 'Source Sans Pro', sans-serif; -webkit-user-select: none;"><g class="tool-remove" event="remove" style="cursor: pointer; font-family: 'Source Sans Pro', sans-serif; -webkit-user-select: none;"><circle r="11" style="cursor: pointer; font-family: 'Source Sans Pro', sans-serif; -webkit-user-select: none; fill: rgb(255, 0, 0);"/><path transform="scale(.8) translate(-16, -16)" d="M24.778,21.419 19.276,15.917 24.777,10.415 21.949,7.585 16.447,13.087 10.945,7.585 8.117,10.415 13.618,15.917 8.116,21.419 10.946,24.248 16.447,18.746 21.948,24.248z" style="cursor: pointer; font-family: 'Source Sans Pro', sans-serif; -webkit-user-select: none; fill: rgb(255, 255, 255);"/><title style="cursor: pointer; font-family: 'Source Sans Pro', sans-serif; -webkit-user-select: none;">Remove link.</title></g><g class="tool-options" event="link:options" style="cursor: pointer; display: block; font-family: 'Source Sans Pro', sans-serif; -webkit-user-select: none;"><circle r="11" transform="translate(25)" style="cursor: pointer; font-family: 'Source Sans Pro', sans-serif; -webkit-user-select: none;"/><path fill="white" transform="scale(.55) translate(29, -16)" d="M31.229,17.736c0.064-0.571,0.104-1.148,0.104-1.736s-0.04-1.166-0.104-1.737l-4.377-1.557c-0.218-0.716-0.504-1.401-0.851-2.05l1.993-4.192c-0.725-0.91-1.549-1.734-2.458-2.459l-4.193,1.994c-0.647-0.347-1.334-0.632-2.049-0.849l-1.558-4.378C17.165,0.708,16.588,0.667,16,0.667s-1.166,0.041-1.737,0.105L12.707,5.15c-0.716,0.217-1.401,0.502-2.05,0.849L6.464,4.005C5.554,4.73,4.73,5.554,4.005,6.464l1.994,4.192c-0.347,0.648-0.632,1.334-0.849,2.05l-4.378,1.557C0.708,14.834,0.667,15.412,0.667,16s0.041,1.165,0.105,1.736l4.378,1.558c0.217,0.715,0.502,1.401,0.849,2.049l-1.994,4.193c0.725,0.909,1.549,1.733,2.459,2.458l4.192-1.993c0.648,0.347,1.334,0.633,2.05,0.851l1.557,4.377c0.571,0.064,1.148,0.104,1.737,0.104c0.588,0,1.165-0.04,1.736-0.104l1.558-4.377c0.715-0.218,1.399-0.504,2.049-0.851l4.193,1.993c0.909-0.725,1.733-1.549,2.458-2.458l-1.993-4.193c0.347-0.647,0.633-1.334,0.851-2.049L31.229,17.736zM16,20.871c-2.69,0-4.872-2.182-4.872-4.871c0-2.69,2.182-4.872,4.872-4.872c2.689,0,4.871,2.182,4.871,4.872C20.871,18.689,18.689,20.871,16,20.871z" style="cursor: pointer; font-family: 'Source Sans Pro', sans-serif; -webkit-user-select: none;"/><title style="cursor: pointer; font-family: 'Source Sans Pro', sans-serif; -webkit-user-select: none;">Link options.</title></g></g></g></g><g id="j_39" model-id="7d5f910d-794b-4270-9ceb-591e3e8adfbc" class="link" style="cursor: -webkit-grabbing; font-family: 'Source Sans Pro', sans-serif; -webkit-user-select: none;"><path class="connection" stroke="black" id="v-294" d="M 670 410 570 410" style="cursor: -webkit-grabbing; font-family: 'Source Sans Pro', sans-serif; -webkit-user-select: none; fill: none; stroke-linejoin: round;"/><path class="marker-source" fill="black" stroke="black" id="v-295" d="M 10 0 L 0 5 L 10 10 z" transform="translate(669.9999951175414,410.0050000003539) scale(0.001,0.001) rotate(-180)" style="cursor: -webkit-grabbing; font-family: 'Source Sans Pro', sans-serif; -webkit-user-select: none; vector-effect: non-scaling-stroke;"/><path class="marker-target" fill="black" stroke="black" id="v-296" d="M 10 0 L 0 5 L 10 10 z" transform="translate(560,405) scale(1,1) rotate(0)" style="cursor: -webkit-grabbing; font-family: 'Source Sans Pro', sans-serif; -webkit-user-select: none; vector-effect: non-scaling-stroke;"/><path class="connection-wrap" id="v-297" d="M 670 410 570 410" style="cursor: move; font-family: 'Source Sans Pro', sans-serif; opacity: 0; z-index: 0; -webkit-user-select: none; fill: none; stroke: rgb(0, 0, 0); stroke-linecap: round; stroke-linejoin: round; stroke-width: 15px;"/><g class="labels" id="v-298" style="cursor: -webkit-grabbing; font-family: 'Source Sans Pro', sans-serif; -webkit-user-select: none;"/><g class="marker-vertices" id="v-299" style="cursor: move; font-family: 'Source Sans Pro', sans-serif; opacity: 0; z-index: 0; -webkit-user-select: none;"/><g class="marker-arrowheads" id="v-300" style="cursor: -webkit-grab; font-family: 'Source Sans Pro', sans-serif; opacity: 0; z-index: 0; -webkit-user-select: none;"><g class="marker-arrowhead-group marker-arrowhead-group-source" id="v-303" transform="translate(670,423) scale(1,1) rotate(-180)" style="cursor: -webkit-grab; font-family: 'Source Sans Pro', sans-serif; -webkit-user-select: none;"><path class="marker-arrowhead" end="source" d="M 26 0 L 0 13 L 26 26 z" style="cursor: -webkit-grab; font-family: 'Source Sans Pro', sans-serif; -webkit-user-select: none; fill: rgb(26, 188, 156);"/></g><g class="marker-arrowhead-group marker-arrowhead-group-target" id="v-304" transform="translate(560,397) scale(1,1) rotate(0)" style="cursor: -webkit-grab; font-family: 'Source Sans Pro', sans-serif; -webkit-user-select: none;"><path class="marker-arrowhead" end="target" d="M 26 0 L 0 13 L 26 26 z" style="cursor: -webkit-grab; font-family: 'Source Sans Pro', sans-serif; -webkit-user-select: none; fill: rgb(26, 188, 156);"/></g></g><g class="link-tools" id="v-301" style="cursor: pointer; font-family: 'Source Sans Pro', sans-serif; opacity: 0; z-index: 0; -webkit-user-select: none;"><g class="link-tool" id="v-302" transform="translate(630, 410) " style="cursor: pointer; font-family: 'Source Sans Pro', sans-serif; -webkit-user-select: none;"><g class="tool-remove" event="remove" style="cursor: pointer; font-family: 'Source Sans Pro', sans-serif; -webkit-user-select: none;"><circle r="11" style="cursor: pointer; font-family: 'Source Sans Pro', sans-serif; -webkit-user-select: none; fill: rgb(255, 0, 0);"/><path transform="scale(.8) translate(-16, -16)" d="M24.778,21.419 19.276,15.917 24.777,10.415 21.949,7.585 16.447,13.087 10.945,7.585 8.117,10.415 13.618,15.917 8.116,21.419 10.946,24.248 16.447,18.746 21.948,24.248z" style="cursor: pointer; font-family: 'Source Sans Pro', sans-serif; -webkit-user-select: none; fill: rgb(255, 255, 255);"/><title style="cursor: pointer; font-family: 'Source Sans Pro', sans-serif; -webkit-user-select: none;">Remove link.</title></g><g class="tool-options" event="link:options" style="cursor: pointer; display: block; font-family: 'Source Sans Pro', sans-serif; -webkit-user-select: none;"><circle r="11" transform="translate(25)" style="cursor: pointer; font-family: 'Source Sans Pro', sans-serif; -webkit-user-select: none;"/><path fill="white" transform="scale(.55) translate(29, -16)" d="M31.229,17.736c0.064-0.571,0.104-1.148,0.104-1.736s-0.04-1.166-0.104-1.737l-4.377-1.557c-0.218-0.716-0.504-1.401-0.851-2.05l1.993-4.192c-0.725-0.91-1.549-1.734-2.458-2.459l-4.193,1.994c-0.647-0.347-1.334-0.632-2.049-0.849l-1.558-4.378C17.165,0.708,16.588,0.667,16,0.667s-1.166,0.041-1.737,0.105L12.707,5.15c-0.716,0.217-1.401,0.502-2.05,0.849L6.464,4.005C5.554,4.73,4.73,5.554,4.005,6.464l1.994,4.192c-0.347,0.648-0.632,1.334-0.849,2.05l-4.378,1.557C0.708,14.834,0.667,15.412,0.667,16s0.041,1.165,0.105,1.736l4.378,1.558c0.217,0.715,0.502,1.401,0.849,2.049l-1.994,4.193c0.725,0.909,1.549,1.733,2.459,2.458l4.192-1.993c0.648,0.347,1.334,0.633,2.05,0.851l1.557,4.377c0.571,0.064,1.148,0.104,1.737,0.104c0.588,0,1.165-0.04,1.736-0.104l1.558-4.377c0.715-0.218,1.399-0.504,2.049-0.851l4.193,1.993c0.909-0.725,1.733-1.549,2.458-2.458l-1.993-4.193c0.347-0.647,0.633-1.334,0.851-2.049L31.229,17.736zM16,20.871c-2.69,0-4.872-2.182-4.872-4.871c0-2.69,2.182-4.872,4.872-4.872c2.689,0,4.871,2.182,4.871,4.872C20.871,18.689,18.689,20.871,16,20.871z" style="cursor: pointer; font-family: 'Source Sans Pro', sans-serif; -webkit-user-select: none;"/><title style="cursor: pointer; font-family: 'Source Sans Pro', sans-serif; -webkit-user-select: none;">Link options.</title></g></g></g></g><g id="j_29" model-id="cefa46ac-ceaa-49c9-a02e-b17d4400b25f" class="element erd Key" transform="translate(360,350)" style="cursor: move; font-family: 'Source Sans Pro', sans-serif; -webkit-user-select: none;"><g class="rotatable" id="v-214" transform="rotate(0,30,10)" style="cursor: move; font-family: 'Source Sans Pro', sans-serif; -webkit-user-select: none; vector-effect: non-scaling-stroke;"><g class="scalable" id="v-218" transform="scale(0.6,0.4)" style="cursor: move; font-family: 'Source Sans Pro', sans-serif; -webkit-user-select: none; vector-effect: non-scaling-stroke;"><ellipse class="outer" id="v-215" stroke-width="2" transform="translate(50, 25)" stroke="#000000" cx="0" cy="0" rx="50" ry="25" fill="#ffffff" stroke-dasharray="0" style="cursor: move; font-family: 'Source Sans Pro', sans-serif; -webkit-user-select: none; vector-effect: non-scaling-stroke;"/><ellipse class="inner" id="v-216" stroke-width="2" transform="translate(50, 25)" stroke="#D35400" cx="0" cy="0" rx="45" ry="20" fill="transparent" display="none" style="cursor: move; font-family: 'Source Sans Pro', sans-serif; -webkit-user-select: none; vector-effect: non-scaling-stroke;"/></g><text id="v-217" y="0.8em" display="null" xml:space="preserve" font-weight="500" text-decoration="underline" font-family="Arial" font-size="10" fill="#000000" stroke="#000000" stroke-width="0" transform="translate(15,9)" style="cursor: move; -webkit-user-select: none; vector-effect: non-scaling-stroke;">1 - query</text></g></g><g id="j_30" model-id="742c9c67-6199-47cf-adac-48b73d44d593" class="element erd Key" transform="translate(370,410)" style="cursor: move; font-family: 'Source Sans Pro', sans-serif; -webkit-user-select: none;"><g class="rotatable" id="v-219" transform="rotate(0,35,10)" style="cursor: move; font-family: 'Source Sans Pro', sans-serif; -webkit-user-select: none; vector-effect: non-scaling-stroke;"><g class="scalable" id="v-223" transform="scale(0.7,0.4)" style="cursor: move; font-family: 'Source Sans Pro', sans-serif; -webkit-user-select: none; vector-effect: non-scaling-stroke;"><ellipse class="outer" id="v-220" stroke-width="2" transform="translate(50, 25)" stroke="#000000" cx="0" cy="0" rx="50" ry="25" fill="#ffffff" stroke-dasharray="0" style="cursor: move; font-family: 'Source Sans Pro', sans-serif; -webkit-user-select: none; vector-effect: non-scaling-stroke;"/><ellipse class="inner" id="v-221" stroke-width="2" transform="translate(50, 25)" stroke="#D35400" cx="0" cy="0" rx="45" ry="20" fill="transparent" display="none" style="cursor: move; font-family: 'Source Sans Pro', sans-serif; -webkit-user-select: none; vector-effect: non-scaling-stroke;"/></g><text id="v-222" y="0.8em" display="null" xml:space="preserve" font-weight="500" text-decoration="underline" font-family="Arial" font-size="10" fill="#000000" stroke="#000000" stroke-width="0" transform="translate(11,9)" style="cursor: move; -webkit-user-select: none; vector-effect: non-scaling-stroke;">real object(s)</text></g></g><g id="j_33" model-id="8895f3a6-3a3f-4af2-b470-a77923432b1b" class="element erd Key" transform="translate(560,350)" style="cursor: move; font-family: 'Source Sans Pro', sans-serif; -webkit-user-select: none;"><g class="rotatable" id="v-234" transform="rotate(0,40,10)" style="cursor: move; font-family: 'Source Sans Pro', sans-serif; -webkit-user-select: none; vector-effect: non-scaling-stroke;"><g class="scalable" id="v-238" transform="scale(0.8,0.4)" style="cursor: move; font-family: 'Source Sans Pro', sans-serif; -webkit-user-select: none; vector-effect: non-scaling-stroke;"><ellipse class="outer" id="v-235" stroke-width="2" transform="translate(50, 25)" stroke="#000000" cx="0" cy="0" rx="50" ry="25" fill="#ffffff" stroke-dasharray="0" style="cursor: move; font-family: 'Source Sans Pro', sans-serif; -webkit-user-select: none; vector-effect: non-scaling-stroke;"/><ellipse class="inner" id="v-236" stroke-width="2" transform="translate(50, 25)" stroke="#D35400" cx="0" cy="0" rx="45" ry="20" fill="transparent" display="none" style="cursor: move; font-family: 'Source Sans Pro', sans-serif; -webkit-user-select: none; vector-effect: non-scaling-stroke;"/></g><text id="v-237" y="0.8em" display="null" xml:space="preserve" font-weight="500" text-decoration="underline" font-family="Arial" font-size="10" fill="#000000" stroke="#000000" stroke-width="0" transform="translate(8.5,9)" style="cursor: move; -webkit-user-select: none; vector-effect: non-scaling-stroke;">3 - reconstitute</text></g></g><g id="j_28" model-id="5301bade-682d-4eb6-9f17-b7d5cfd9e8f3" class="element erd Key" transform="translate(580,410)" style="cursor: move; font-family: 'Source Sans Pro', sans-serif; -webkit-user-select: none;"><g class="rotatable" id="v-209" transform="rotate(0,40,10)" style="cursor: move; font-family: 'Source Sans Pro', sans-serif; -webkit-user-select: none; vector-effect: non-scaling-stroke;"><g class="scalable" id="v-213" transform="scale(0.8,0.4)" style="cursor: move; font-family: 'Source Sans Pro', sans-serif; -webkit-user-select: none; vector-effect: non-scaling-stroke;"><ellipse class="outer" id="v-210" stroke-width="2" transform="translate(50, 25)" stroke="#000000" cx="0" cy="0" rx="50" ry="25" fill="#ffffff" stroke-dasharray="0" style="cursor: move; font-family: 'Source Sans Pro', sans-serif; -webkit-user-select: none; vector-effect: non-scaling-stroke;"/><ellipse class="inner" id="v-211" stroke-width="2" transform="translate(50, 25)" stroke="#D35400" cx="0" cy="0" rx="45" ry="20" fill="transparent" display="none" style="cursor: move; font-family: 'Source Sans Pro', sans-serif; -webkit-user-select: none; vector-effect: non-scaling-stroke;"/></g><text id="v-212" y="0.8em" display="null" xml:space="preserve" font-weight="500" text-decoration="underline" font-family="Arial" font-size="10" fill="#000000" stroke="#000000" stroke-width="0" transform="translate(11.5,9)" style="cursor: move; -webkit-user-select: none; vector-effect: non-scaling-stroke;">real object(s)</text></g></g><g id="j_38" model-id="d8eb6774-da65-461c-92a1-601bdb4a3433" class="link" style="cursor: -webkit-grabbing; font-family: 'Source Sans Pro', sans-serif; -webkit-user-select: none;"><path class="connection" stroke="black" id="v-283" d="M 550 370 650 370" style="cursor: -webkit-grabbing; font-family: 'Source Sans Pro', sans-serif; -webkit-user-select: none; fill: none; stroke-linejoin: round;"/><path class="marker-source" fill="black" stroke="black" id="v-284" d="M 10 0 L 0 5 L 10 10 z" transform="translate(550.0000048824586,369.9949999996461) scale(0.001,0.001) rotate(0)" style="cursor: -webkit-grabbing; font-family: 'Source Sans Pro', sans-serif; -webkit-user-select: none; vector-effect: non-scaling-stroke;"/><path class="marker-target" fill="black" stroke="black" id="v-285" d="M 10 0 L 0 5 L 10 10 z" transform="translate(660,375) scale(1,1) rotate(-180)" style="cursor: -webkit-grabbing; font-family: 'Source Sans Pro', sans-serif; -webkit-user-select: none; vector-effect: non-scaling-stroke;"/><path class="connection-wrap" id="v-286" d="M 550 370 650 370" style="cursor: move; font-family: 'Source Sans Pro', sans-serif; opacity: 0; z-index: 0; -webkit-user-select: none; fill: none; stroke: rgb(0, 0, 0); stroke-linecap: round; stroke-linejoin: round; stroke-width: 15px;"/><g class="labels" id="v-287" style="cursor: -webkit-grabbing; font-family: 'Source Sans Pro', sans-serif; -webkit-user-select: none;"/><g class="marker-vertices" id="v-288" style="cursor: move; font-family: 'Source Sans Pro', sans-serif; opacity: 0; z-index: 0; -webkit-user-select: none;"/><g class="marker-arrowheads" id="v-289" style="cursor: -webkit-grab; font-family: 'Source Sans Pro', sans-serif; opacity: 0; z-index: 0; -webkit-user-select: none;"><g class="marker-arrowhead-group marker-arrowhead-group-source" id="v-292" transform="translate(550,357) scale(1,1) rotate(0)" style="cursor: -webkit-grab; font-family: 'Source Sans Pro', sans-serif; -webkit-user-select: none;"><path class="marker-arrowhead" end="source" d="M 26 0 L 0 13 L 26 26 z" style="cursor: -webkit-grab; font-family: 'Source Sans Pro', sans-serif; -webkit-user-select: none; fill: rgb(26, 188, 156);"/></g><g class="marker-arrowhead-group marker-arrowhead-group-target" id="v-293" transform="translate(660,383) scale(1,1) rotate(-180)" style="cursor: -webkit-grab; font-family: 'Source Sans Pro', sans-serif; -webkit-user-select: none;"><path class="marker-arrowhead" end="target" d="M 26 0 L 0 13 L 26 26 z" style="cursor: -webkit-grab; font-family: 'Source Sans Pro', sans-serif; -webkit-user-select: none; fill: rgb(26, 188, 156);"/></g></g><g class="link-tools" id="v-290" style="cursor: pointer; font-family: 'Source Sans Pro', sans-serif; opacity: 0; z-index: 0; -webkit-user-select: none;"><g class="link-tool" id="v-291" transform="translate(590, 370) " style="cursor: pointer; font-family: 'Source Sans Pro', sans-serif; -webkit-user-select: none;"><g class="tool-remove" event="remove" style="cursor: pointer; font-family: 'Source Sans Pro', sans-serif; -webkit-user-select: none;"><circle r="11" style="cursor: pointer; font-family: 'Source Sans Pro', sans-serif; -webkit-user-select: none; fill: rgb(255, 0, 0);"/><path transform="scale(.8) translate(-16, -16)" d="M24.778,21.419 19.276,15.917 24.777,10.415 21.949,7.585 16.447,13.087 10.945,7.585 8.117,10.415 13.618,15.917 8.116,21.419 10.946,24.248 16.447,18.746 21.948,24.248z" style="cursor: pointer; font-family: 'Source Sans Pro', sans-serif; -webkit-user-select: none; fill: rgb(255, 255, 255);"/><title style="cursor: pointer; font-family: 'Source Sans Pro', sans-serif; -webkit-user-select: none;">Remove link.</title></g><g class="tool-options" event="link:options" style="cursor: pointer; display: block; font-family: 'Source Sans Pro', sans-serif; -webkit-user-select: none;"><circle r="11" transform="translate(25)" style="cursor: pointer; font-family: 'Source Sans Pro', sans-serif; -webkit-user-select: none;"/><path fill="white" transform="scale(.55) translate(29, -16)" d="M31.229,17.736c0.064-0.571,0.104-1.148,0.104-1.736s-0.04-1.166-0.104-1.737l-4.377-1.557c-0.218-0.716-0.504-1.401-0.851-2.05l1.993-4.192c-0.725-0.91-1.549-1.734-2.458-2.459l-4.193,1.994c-0.647-0.347-1.334-0.632-2.049-0.849l-1.558-4.378C17.165,0.708,16.588,0.667,16,0.667s-1.166,0.041-1.737,0.105L12.707,5.15c-0.716,0.217-1.401,0.502-2.05,0.849L6.464,4.005C5.554,4.73,4.73,5.554,4.005,6.464l1.994,4.192c-0.347,0.648-0.632,1.334-0.849,2.05l-4.378,1.557C0.708,14.834,0.667,15.412,0.667,16s0.041,1.165,0.105,1.736l4.378,1.558c0.217,0.715,0.502,1.401,0.849,2.049l-1.994,4.193c0.725,0.909,1.549,1.733,2.459,2.458l4.192-1.993c0.648,0.347,1.334,0.633,2.05,0.851l1.557,4.377c0.571,0.064,1.148,0.104,1.737,0.104c0.588,0,1.165-0.04,1.736-0.104l1.558-4.377c0.715-0.218,1.399-0.504,2.049-0.851l4.193,1.993c0.909-0.725,1.733-1.549,2.458-2.458l-1.993-4.193c0.347-0.647,0.633-1.334,0.851-2.049L31.229,17.736zM16,20.871c-2.69,0-4.872-2.182-4.872-4.871c0-2.69,2.182-4.872,4.872-4.872c2.689,0,4.871,2.182,4.871,4.872C20.871,18.689,18.689,20.871,16,20.871z" style="cursor: pointer; font-family: 'Source Sans Pro', sans-serif; -webkit-user-select: none;"/><title style="cursor: pointer; font-family: 'Source Sans Pro', sans-serif; -webkit-user-select: none;">Link options.</title></g></g></g></g><g id="j_27" model-id="72027eed-ed68-4f93-835a-14b0d186e056" class="element erd Entity" transform="translate(460,520)" style="cursor: move; font-family: 'Source Sans Pro', sans-serif; -webkit-user-select: none;"><g class="rotatable" id="v-204" transform="rotate(0,45,30)" style="cursor: move; font-family: 'Source Sans Pro', sans-serif; -webkit-user-select: none; vector-effect: non-scaling-stroke;"><g class="scalable" id="v-208" transform="scale(0.9,1)" style="cursor: move; font-family: 'Source Sans Pro', sans-serif; -webkit-user-select: none; vector-effect: non-scaling-stroke;"><polygon class="outer" id="v-205" fill="#ffffff" stroke="#000000" stroke-width="2" points="100,0 100,60 0,60 0,0" stroke-dasharray="0" style="cursor: move; font-family: 'Source Sans Pro', sans-serif; -webkit-user-select: none; vector-effect: non-scaling-stroke;"/><polygon class="inner" id="v-206" fill="#2ECC71" stroke="#27AE60" stroke-width="2" points="95,5 95,55 5,55 5,5" display="none" style="cursor: move; font-family: 'Source Sans Pro', sans-serif; -webkit-user-select: none; vector-effect: non-scaling-stroke;"/></g><text id="v-207" y="0.8em" display="null" xml:space="preserve" font-family="Arial" font-size="14" fill="#000000" font-weight="400" stroke="#000000" stroke-width="0" transform="translate(17.5,22)" style="cursor: move; -webkit-user-select: none; vector-effect: non-scaling-stroke;">Gateway</text></g></g><g id="j_36" model-id="0ec61387-1b30-483b-8dea-0021019a0154" class="link" style="cursor: -webkit-grabbing; font-family: 'Source Sans Pro', sans-serif; -webkit-user-select: none;"><path class="connection" stroke="black" id="v-261" d="M 480 420 480 500" style="cursor: -webkit-grabbing; font-family: 'Source Sans Pro', sans-serif; -webkit-user-select: none; fill: none; stroke-linejoin: round;"/><path class="marker-source" fill="black" stroke="black" id="v-262" d="M 10 0 L 0 5 L 10 10 z" transform="translate(480.0050000003539,420.0000048824586) scale(0.001,0.001) rotate(-270)" style="cursor: -webkit-grabbing; font-family: 'Source Sans Pro', sans-serif; -webkit-user-select: none; vector-effect: non-scaling-stroke;"/><path class="marker-target" fill="black" stroke="black" id="v-263" d="M 10 0 L 0 5 L 10 10 z" transform="translate(475,510) scale(1,1) rotate(-90)" style="cursor: -webkit-grabbing; font-family: 'Source Sans Pro', sans-serif; -webkit-user-select: none; vector-effect: non-scaling-stroke;"/><path class="connection-wrap" id="v-264" d="M 480 420 480 500" style="cursor: move; font-family: 'Source Sans Pro', sans-serif; opacity: 0; z-index: 0; -webkit-user-select: none; fill: none; stroke: rgb(0, 0, 0); stroke-linecap: round; stroke-linejoin: round; stroke-width: 15px;"/><g class="labels" id="v-265" style="cursor: -webkit-grabbing; font-family: 'Source Sans Pro', sans-serif; -webkit-user-select: none;"/><g class="marker-vertices" id="v-266" style="cursor: move; font-family: 'Source Sans Pro', sans-serif; opacity: 0; z-index: 0; -webkit-user-select: none;"/><g class="marker-arrowheads" id="v-267" style="cursor: -webkit-grab; font-family: 'Source Sans Pro', sans-serif; opacity: 0; z-index: 0; -webkit-user-select: none;"><g class="marker-arrowhead-group marker-arrowhead-group-source" id="v-270" transform="translate(486.5,420) scale(0.5,0.5) rotate(-270)" style="cursor: -webkit-grab; font-family: 'Source Sans Pro', sans-serif; -webkit-user-select: none;"><path class="marker-arrowhead" end="source" d="M 26 0 L 0 13 L 26 26 z" style="cursor: -webkit-grab; font-family: 'Source Sans Pro', sans-serif; -webkit-user-select: none; fill: rgb(26, 188, 156);"/></g><g class="marker-arrowhead-group marker-arrowhead-group-target" id="v-271" transform="translate(473.5,510) scale(0.5,0.5) rotate(-90)" style="cursor: -webkit-grab; font-family: 'Source Sans Pro', sans-serif; -webkit-user-select: none;"><path class="marker-arrowhead" end="target" d="M 26 0 L 0 13 L 26 26 z" style="cursor: -webkit-grab; font-family: 'Source Sans Pro', sans-serif; -webkit-user-select: none; fill: rgb(26, 188, 156);"/></g></g><g class="link-tools" id="v-268" style="cursor: pointer; font-family: 'Source Sans Pro', sans-serif; opacity: 0; z-index: 0; -webkit-user-select: none;"><g class="link-tool" id="v-269" transform="translate(480, 440) scale(.5)" style="cursor: pointer; font-family: 'Source Sans Pro', sans-serif; -webkit-user-select: none;"><g class="tool-remove" event="remove" style="cursor: pointer; font-family: 'Source Sans Pro', sans-serif; -webkit-user-select: none;"><circle r="11" style="cursor: pointer; font-family: 'Source Sans Pro', sans-serif; -webkit-user-select: none; fill: rgb(255, 0, 0);"/><path transform="scale(.8) translate(-16, -16)" d="M24.778,21.419 19.276,15.917 24.777,10.415 21.949,7.585 16.447,13.087 10.945,7.585 8.117,10.415 13.618,15.917 8.116,21.419 10.946,24.248 16.447,18.746 21.948,24.248z" style="cursor: pointer; font-family: 'Source Sans Pro', sans-serif; -webkit-user-select: none; fill: rgb(255, 255, 255);"/><title style="cursor: pointer; font-family: 'Source Sans Pro', sans-serif; -webkit-user-select: none;">Remove link.</title></g><g class="tool-options" event="link:options" style="cursor: pointer; display: block; font-family: 'Source Sans Pro', sans-serif; -webkit-user-select: none;"><circle r="11" transform="translate(25)" style="cursor: pointer; font-family: 'Source Sans Pro', sans-serif; -webkit-user-select: none;"/><path fill="white" transform="scale(.55) translate(29, -16)" d="M31.229,17.736c0.064-0.571,0.104-1.148,0.104-1.736s-0.04-1.166-0.104-1.737l-4.377-1.557c-0.218-0.716-0.504-1.401-0.851-2.05l1.993-4.192c-0.725-0.91-1.549-1.734-2.458-2.459l-4.193,1.994c-0.647-0.347-1.334-0.632-2.049-0.849l-1.558-4.378C17.165,0.708,16.588,0.667,16,0.667s-1.166,0.041-1.737,0.105L12.707,5.15c-0.716,0.217-1.401,0.502-2.05,0.849L6.464,4.005C5.554,4.73,4.73,5.554,4.005,6.464l1.994,4.192c-0.347,0.648-0.632,1.334-0.849,2.05l-4.378,1.557C0.708,14.834,0.667,15.412,0.667,16s0.041,1.165,0.105,1.736l4.378,1.558c0.217,0.715,0.502,1.401,0.849,2.049l-1.994,4.193c0.725,0.909,1.549,1.733,2.459,2.458l4.192-1.993c0.648,0.347,1.334,0.633,2.05,0.851l1.557,4.377c0.571,0.064,1.148,0.104,1.737,0.104c0.588,0,1.165-0.04,1.736-0.104l1.558-4.377c0.715-0.218,1.399-0.504,2.049-0.851l4.193,1.993c0.909-0.725,1.733-1.549,2.458-2.458l-1.993-4.193c0.347-0.647,0.633-1.334,0.851-2.049L31.229,17.736zM16,20.871c-2.69,0-4.872-2.182-4.872-4.871c0-2.69,2.182-4.872,4.872-4.872c2.689,0,4.871,2.182,4.871,4.872C20.871,18.689,18.689,20.871,16,20.871z" style="cursor: pointer; font-family: 'Source Sans Pro', sans-serif; -webkit-user-select: none;"/><title style="cursor: pointer; font-family: 'Source Sans Pro', sans-serif; -webkit-user-select: none;">Link options.</title></g></g></g></g><g id="j_35" model-id="6aff902d-47c3-469b-92e4-97fdab336f38" class="link" style="cursor: -webkit-grabbing; font-family: 'Source Sans Pro', sans-serif; -webkit-user-select: none;"><path class="connection" stroke="black" id="v-250" d="M 530 520 530 440" style="cursor: -webkit-grabbing; font-family: 'Source Sans Pro', sans-serif; -webkit-user-select: none; fill: none; stroke-linejoin: round;"/><path class="marker-source" fill="black" stroke="black" id="v-251" d="M 10 0 L 0 5 L 10 10 z" transform="translate(529.9949999996461,519.9999951175414) scale(0.001,0.001) rotate(-90)" style="cursor: -webkit-grabbing; font-family: 'Source Sans Pro', sans-serif; -webkit-user-select: none; vector-effect: non-scaling-stroke;"/><path class="marker-target" fill="black" stroke="black" id="v-252" d="M 10 0 L 0 5 L 10 10 z" transform="translate(535,430) scale(1,1) rotate(-270)" style="cursor: -webkit-grabbing; font-family: 'Source Sans Pro', sans-serif; -webkit-user-select: none; vector-effect: non-scaling-stroke;"/><path class="connection-wrap" id="v-253" d="M 530 520 530 440" style="cursor: move; font-family: 'Source Sans Pro', sans-serif; opacity: 0; z-index: 0; -webkit-user-select: none; fill: none; stroke: rgb(0, 0, 0); stroke-linecap: round; stroke-linejoin: round; stroke-width: 15px;"/><g class="labels" id="v-254" style="cursor: -webkit-grabbing; font-family: 'Source Sans Pro', sans-serif; -webkit-user-select: none;"/><g class="marker-vertices" id="v-255" style="cursor: move; font-family: 'Source Sans Pro', sans-serif; opacity: 0; z-index: 0; -webkit-user-select: none;"/><g class="marker-arrowheads" id="v-256" style="cursor: -webkit-grab; font-family: 'Source Sans Pro', sans-serif; opacity: 0; z-index: 0; -webkit-user-select: none;"><g class="marker-arrowhead-group marker-arrowhead-group-source" id="v-259" transform="translate(523.5,520) scale(0.5,0.5) rotate(-90)" style="cursor: -webkit-grab; font-family: 'Source Sans Pro', sans-serif; -webkit-user-select: none;"><path class="marker-arrowhead" end="source" d="M 26 0 L 0 13 L 26 26 z" style="cursor: -webkit-grab; font-family: 'Source Sans Pro', sans-serif; -webkit-user-select: none; fill: rgb(26, 188, 156);"/></g><g class="marker-arrowhead-group marker-arrowhead-group-target" id="v-260" transform="translate(536.5,430) scale(0.5,0.5) rotate(-270)" style="cursor: -webkit-grab; font-family: 'Source Sans Pro', sans-serif; -webkit-user-select: none;"><path class="marker-arrowhead" end="target" d="M 26 0 L 0 13 L 26 26 z" style="cursor: -webkit-grab; font-family: 'Source Sans Pro', sans-serif; -webkit-user-select: none; fill: rgb(26, 188, 156);"/></g></g><g class="link-tools" id="v-257" style="cursor: pointer; font-family: 'Source Sans Pro', sans-serif; opacity: 0; z-index: 0; -webkit-user-select: none;"><g class="link-tool" id="v-258" transform="translate(530, 500) scale(.5)" style="cursor: pointer; font-family: 'Source Sans Pro', sans-serif; -webkit-user-select: none;"><g class="tool-remove" event="remove" style="cursor: pointer; font-family: 'Source Sans Pro', sans-serif; -webkit-user-select: none;"><circle r="11" style="cursor: pointer; font-family: 'Source Sans Pro', sans-serif; -webkit-user-select: none; fill: rgb(255, 0, 0);"/><path transform="scale(.8) translate(-16, -16)" d="M24.778,21.419 19.276,15.917 24.777,10.415 21.949,7.585 16.447,13.087 10.945,7.585 8.117,10.415 13.618,15.917 8.116,21.419 10.946,24.248 16.447,18.746 21.948,24.248z" style="cursor: pointer; font-family: 'Source Sans Pro', sans-serif; -webkit-user-select: none; fill: rgb(255, 255, 255);"/><title style="cursor: pointer; font-family: 'Source Sans Pro', sans-serif; -webkit-user-select: none;">Remove link.</title></g><g class="tool-options" event="link:options" style="cursor: pointer; display: block; font-family: 'Source Sans Pro', sans-serif; -webkit-user-select: none;"><circle r="11" transform="translate(25)" style="cursor: pointer; font-family: 'Source Sans Pro', sans-serif; -webkit-user-select: none;"/><path fill="white" transform="scale(.55) translate(29, -16)" d="M31.229,17.736c0.064-0.571,0.104-1.148,0.104-1.736s-0.04-1.166-0.104-1.737l-4.377-1.557c-0.218-0.716-0.504-1.401-0.851-2.05l1.993-4.192c-0.725-0.91-1.549-1.734-2.458-2.459l-4.193,1.994c-0.647-0.347-1.334-0.632-2.049-0.849l-1.558-4.378C17.165,0.708,16.588,0.667,16,0.667s-1.166,0.041-1.737,0.105L12.707,5.15c-0.716,0.217-1.401,0.502-2.05,0.849L6.464,4.005C5.554,4.73,4.73,5.554,4.005,6.464l1.994,4.192c-0.347,0.648-0.632,1.334-0.849,2.05l-4.378,1.557C0.708,14.834,0.667,15.412,0.667,16s0.041,1.165,0.105,1.736l4.378,1.558c0.217,0.715,0.502,1.401,0.849,2.049l-1.994,4.193c0.725,0.909,1.549,1.733,2.459,2.458l4.192-1.993c0.648,0.347,1.334,0.633,2.05,0.851l1.557,4.377c0.571,0.064,1.148,0.104,1.737,0.104c0.588,0,1.165-0.04,1.736-0.104l1.558-4.377c0.715-0.218,1.399-0.504,2.049-0.851l4.193,1.993c0.909-0.725,1.733-1.549,2.458-2.458l-1.993-4.193c0.347-0.647,0.633-1.334,0.851-2.049L31.229,17.736zM16,20.871c-2.69,0-4.872-2.182-4.872-4.871c0-2.69,2.182-4.872,4.872-4.872c2.689,0,4.871,2.182,4.871,4.872C20.871,18.689,18.689,20.871,16,20.871z" style="cursor: pointer; font-family: 'Source Sans Pro', sans-serif; -webkit-user-select: none;"/><title style="cursor: pointer; font-family: 'Source Sans Pro', sans-serif; -webkit-user-select: none;">Link options.</title></g></g></g></g><g id="j_26" model-id="0e9cc6ce-f47f-4b8a-b0ec-1cbcfe5ca3b3" class="element erd Key" transform="translate(440,450)" style="cursor: move; font-family: 'Source Sans Pro', sans-serif; -webkit-user-select: none;"><g class="rotatable" id="v-199" transform="rotate(-90,30,10)" style="cursor: move; font-family: 'Source Sans Pro', sans-serif; -webkit-user-select: none; vector-effect: non-scaling-stroke;"><g class="scalable" id="v-203" transform="scale(0.6,0.4)" style="cursor: move; font-family: 'Source Sans Pro', sans-serif; -webkit-user-select: none; vector-effect: non-scaling-stroke;"><ellipse class="outer" id="v-200" stroke-width="2" transform="translate(50, 25)" stroke="#000000" cx="0" cy="0" rx="50" ry="25" fill="#ffffff" stroke-dasharray="0" style="cursor: move; font-family: 'Source Sans Pro', sans-serif; -webkit-user-select: none; vector-effect: non-scaling-stroke;"/><ellipse class="inner" id="v-201" stroke-width="2" transform="translate(50, 25)" stroke="#D35400" cx="0" cy="0" rx="45" ry="20" fill="transparent" display="none" style="cursor: move; font-family: 'Source Sans Pro', sans-serif; -webkit-user-select: none; vector-effect: non-scaling-stroke;"/></g><text id="v-202" y="0.8em" display="null" xml:space="preserve" font-weight="500" text-decoration="underline" font-family="Arial" font-size="10" fill="#000000" stroke="#000000" stroke-width="0" transform="translate(15,9)" style="cursor: move; -webkit-user-select: none; vector-effect: non-scaling-stroke;">2 - query</text></g></g><g id="j_32" model-id="e213fcc3-60e1-4d09-b2ff-4bc3dfa2b09b" class="element erd Key" transform="translate(505,465)" style="cursor: move; font-family: 'Source Sans Pro', sans-serif; -webkit-user-select: none;"><g class="rotatable" id="v-229" transform="rotate(-90,35,10)" style="cursor: move; font-family: 'Source Sans Pro', sans-serif; -webkit-user-select: none; vector-effect: non-scaling-stroke;"><g class="scalable" id="v-233" transform="scale(0.7,0.4)" style="cursor: move; font-family: 'Source Sans Pro', sans-serif; -webkit-user-select: none; vector-effect: non-scaling-stroke;"><ellipse class="outer" id="v-230" stroke-width="2" transform="translate(50, 25)" stroke="#000000" cx="0" cy="0" rx="50" ry="25" fill="#ffffff" stroke-dasharray="0" style="cursor: move; font-family: 'Source Sans Pro', sans-serif; -webkit-user-select: none; vector-effect: non-scaling-stroke;"/><ellipse class="inner" id="v-231" stroke-width="2" transform="translate(50, 25)" stroke="#D35400" cx="0" cy="0" rx="45" ry="20" fill="transparent" display="none" style="cursor: move; font-family: 'Source Sans Pro', sans-serif; -webkit-user-select: none; vector-effect: non-scaling-stroke;"/></g><text id="v-232" y="0.8em" display="null" xml:space="preserve" font-weight="500" text-decoration="underline" font-family="Arial" font-size="10" fill="#000000" stroke="#000000" stroke-width="0" transform="translate(13,9)" style="cursor: move; -webkit-user-select: none; vector-effect: non-scaling-stroke;">object data</text></g></g></g></svg>