<svg xmlns="http://www.w3.org/2000/svg" xmlns:xlink="http://www.w3.org/1999/xlink" version="1.1" id="v-2" width="100%" height="100%" viewBox="250 380 385 160"><g id="v-3" class="viewport" transform="" style="cursor: -webkit-grabbing; font-family: 'Source Sans Pro', sans-serif; -webkit-user-select: none;"><g id="j_25" model-id="01783c68-9923-47a0-959d-f8fcbbf940cd" class="element uml Class" fill="#FFFFFF" stroke="none" transform="translate(420,380)" style="cursor: move; font-family: 'Source Sans Pro', sans-serif; -webkit-user-select: none;"><g class="rotatable" id="v-201" transform="rotate(0,30,30)" style="cursor: move; font-family: 'Source Sans Pro', sans-serif; -webkit-user-select: none; vector-effect: non-scaling-stroke;"><g class="scalable" id="v-208" transform="scale(0.3,0.6)" style="cursor: move; font-family: 'Source Sans Pro', sans-serif; -webkit-user-select: none; vector-effect: non-scaling-stroke;"><rect class="uml-class-name-rect" id="v-202" width="200" stroke="black" stroke-width="2" fill="#ffffff" height="40" transform="translate(0,0)" stroke-dasharray="0" rx="1" ry="1" style="cursor: move; font-family: 'Source Sans Pro', sans-serif; -webkit-user-select: none; vector-effect: non-scaling-stroke;"/><rect class="uml-class-attrs-rect" id="v-203" width="200" stroke="black" stroke-width="2" fill="#ffffff" height="20" transform="translate(0,40)" stroke-dasharray="0" rx="1" ry="1" style="cursor: move; font-family: 'Source Sans Pro', sans-serif; -webkit-user-select: none; vector-effect: non-scaling-stroke;"/><rect class="uml-class-methods-rect" id="v-204" width="200" stroke="black" stroke-width="2" fill="#ffffff" height="40" transform="translate(0,60)" stroke-dasharray="0" rx="1" ry="1" style="cursor: move; font-family: 'Source Sans Pro', sans-serif; -webkit-user-select: none; vector-effect: non-scaling-stroke;"/></g><text class="uml-class-name-text" id="v-205" y="0.8em" display="null" xml:space="preserve" text-anchor="middle" font-weight="bold" fill="black" font-size="9" font-family="Times New Roman" transform="translate(30.000001907348633,7)" style="cursor: move; -webkit-user-select: none; vector-effect: non-scaling-stroke;">ActiveObject</text><text class="uml-class-attrs-text" id="v-206" y="0.8em" display="none" xml:space="preserve" fill="black" font-size="9" font-family="Times New Roman" transform="translate(5,29)" style="cursor: move; -webkit-user-select: none; vector-effect: non-scaling-stroke;"/><text class="uml-class-methods-text" id="v-207" y="0.8em" display="null" xml:space="preserve" fill="black" font-size="9" font-family="Times New Roman" transform="translate(5,41)" style="cursor: move; -webkit-user-select: none; vector-effect: non-scaling-stroke;">+ Run()</text></g></g><g id="j_29" model-id="65a7d1aa-6ec3-4c76-869b-a332c567127a" class="element erd Entity" transform="translate(250,510)" style="cursor: move; font-family: 'Source Sans Pro', sans-serif; -webkit-user-select: none;"><g class="rotatable" id="v-223" transform="rotate(0,45,15)" style="cursor: move; font-family: 'Source Sans Pro', sans-serif; -webkit-user-select: none; vector-effect: non-scaling-stroke;"><g class="scalable" id="v-227" transform="scale(0.9,0.5)" style="cursor: move; font-family: 'Source Sans Pro', sans-serif; -webkit-user-select: none; vector-effect: non-scaling-stroke;"><polygon class="outer" id="v-224" fill="#ffffff" stroke="#000000" stroke-width="2" points="100,0 100,60 0,60 0,0" stroke-dasharray="0" style="cursor: move; font-family: 'Source Sans Pro', sans-serif; -webkit-user-select: none; vector-effect: non-scaling-stroke;"/><polygon class="inner" id="v-225" fill="#2ECC71" stroke="#27AE60" stroke-width="2" points="95,5 95,55 5,55 5,5" display="none" style="cursor: move; font-family: 'Source Sans Pro', sans-serif; -webkit-user-select: none; vector-effect: non-scaling-stroke;"/></g><text id="v-226" y="0.8em" display="null" xml:space="preserve" font-family="Arial" font-size="14" font-weight="400" fill="#000000" stroke="#000000" stroke-width="0" transform="translate(7,7)" style="cursor: move; -webkit-user-select: none; vector-effect: non-scaling-stroke;">Command 1</text></g></g><g id="j_34" model-id="b84f438f-e953-46df-b4d3-21e0cba90474" class="element erd Entity" transform="translate(380,510)" style="cursor: move; font-family: 'Source Sans Pro', sans-serif; -webkit-user-select: none;"><g class="rotatable" id="v-233" transform="rotate(0,45,15)" style="cursor: move; font-family: 'Source Sans Pro', sans-serif; -webkit-user-select: none; vector-effect: non-scaling-stroke;"><g class="scalable" id="v-237" transform="scale(0.9,0.5)" style="cursor: move; font-family: 'Source Sans Pro', sans-serif; -webkit-user-select: none; vector-effect: non-scaling-stroke;"><polygon class="outer" id="v-234" fill="#ffffff" stroke="#000000" stroke-width="2" points="100,0 100,60 0,60 0,0" stroke-dasharray="0" style="cursor: move; font-family: 'Source Sans Pro', sans-serif; -webkit-user-select: none; vector-effect: non-scaling-stroke;"/><polygon class="inner" id="v-235" fill="#2ECC71" stroke="#27AE60" stroke-width="2" points="95,5 95,55 5,55 5,5" display="none" style="cursor: move; font-family: 'Source Sans Pro', sans-serif; -webkit-user-select: none; vector-effect: non-scaling-stroke;"/></g><text id="v-236" y="0.8em" display="null" xml:space="preserve" font-family="Arial" font-size="14" font-weight="400" fill="#000000" stroke="#000000" stroke-width="0" transform="translate(7,7)" style="cursor: move; -webkit-user-select: none; vector-effect: non-scaling-stroke;">Command 2</text></g></g><g id="j_39" model-id="c4b576f4-61c9-4da3-a6af-c6b4204d3416" class="element erd Entity" transform="translate(545,510)" style="cursor: move; font-family: 'Source Sans Pro', sans-serif; -webkit-user-select: none;"><g class="rotatable" id="v-243" transform="rotate(0,45,15)" style="cursor: move; font-family: 'Source Sans Pro', sans-serif; -webkit-user-select: none; vector-effect: non-scaling-stroke;"><g class="scalable" id="v-247" transform="scale(0.9,0.5)" style="cursor: move; font-family: 'Source Sans Pro', sans-serif; -webkit-user-select: none; vector-effect: non-scaling-stroke;"><polygon class="outer" id="v-244" fill="#ffffff" stroke="#000000" stroke-width="2" points="100,0 100,60 0,60 0,0" stroke-dasharray="0" style="cursor: move; font-family: 'Source Sans Pro', sans-serif; -webkit-user-select: none; vector-effect: non-scaling-stroke;"/><polygon class="inner" id="v-245" fill="#2ECC71" stroke="#27AE60" stroke-width="2" points="95,5 95,55 5,55 5,5" display="none" style="cursor: move; font-family: 'Source Sans Pro', sans-serif; -webkit-user-select: none; vector-effect: non-scaling-stroke;"/></g><text id="v-246" y="0.8em" display="null" xml:space="preserve" font-family="Arial" font-size="14" font-weight="400" fill="#000000" stroke="#000000" stroke-width="0" transform="translate(6,7)" style="cursor: move; -webkit-user-select: none; vector-effect: non-scaling-stroke;">Command N</text></g></g><g id="j_44" model-id="8e101e47-342b-489c-a422-e0d1090c6d49" class="element fsa EndState" transform="translate(500,515)" style="cursor: move; font-family: 'Source Sans Pro', sans-serif; -webkit-user-select: none;"><g class="rotatable" id="v-258" transform="rotate(0,10,10)" style="cursor: move; font-family: 'Source Sans Pro', sans-serif; -webkit-user-select: none; vector-effect: non-scaling-stroke;"><g class="scalable" id="v-261" transform="scale(1,1)" style="cursor: move; font-family: 'Source Sans Pro', sans-serif; -webkit-user-select: none; vector-effect: non-scaling-stroke;"><circle class="outer" id="v-259" transform="translate(10, 10)" r="10" fill="#ffffff" stroke="#000000" stroke-dasharray="0" style="cursor: move; font-family: 'Source Sans Pro', sans-serif; -webkit-user-select: none; vector-effect: non-scaling-stroke;"/><circle class="inner" id="v-260" transform="translate(10, 10)" r="6" fill="#000000" style="cursor: move; font-family: 'Source Sans Pro', sans-serif; -webkit-user-select: none; vector-effect: non-scaling-stroke;"/></g></g></g><g id="j_77" model-id="55f3f395-852d-4132-b933-e7ab79153e04" class="link" style="pointer-events: visiblePainted; cursor: -webkit-grabbing; font-family: 'Source Sans Pro', sans-serif; -webkit-user-select: none;"><path class="connection" stroke="black" id="v-595" d="M 450 440 450 480 430 480 300 480 300 500" style="cursor: -webkit-grabbing; font-family: 'Source Sans Pro', sans-serif; -webkit-user-select: none; fill: none; stroke-linejoin: round;"/><path class="marker-source" fill="black" stroke="black" id="v-596" d="M 10 0 L 0 5 L 10 10 z" transform="translate(450.0050000003539,440.0000048824586) scale(0.001,0.001) rotate(-270)" style="cursor: -webkit-grabbing; font-family: 'Source Sans Pro', sans-serif; -webkit-user-select: none; vector-effect: non-scaling-stroke;"/><path class="marker-target" fill="black" stroke="black" id="v-597" d="M 10 0 L 0 5 L 10 10 z" transform="translate(295,510) scale(1,1) rotate(-90)" style="cursor: -webkit-grabbing; font-family: 'Source Sans Pro', sans-serif; -webkit-user-select: none; vector-effect: non-scaling-stroke;"/><path class="connection-wrap" id="v-598" d="M 450 440 450 480 430 480 300 480 300 500" style="cursor: move; font-family: 'Source Sans Pro', sans-serif; opacity: 0; z-index: 0; -webkit-user-select: none; fill: none; stroke: rgb(0, 0, 0); stroke-linecap: round; stroke-linejoin: round; stroke-width: 15px;"/><g class="labels" id="v-599" style="cursor: -webkit-grabbing; font-family: 'Source Sans Pro', sans-serif; -webkit-user-select: none;"/><g class="marker-vertices" id="v-600" style="cursor: move; font-family: 'Source Sans Pro', sans-serif; opacity: 0; z-index: 0; -webkit-user-select: none;"><g class="marker-vertex-group" transform="translate(450, 480)" id="v-724" style="cursor: move; font-family: 'Source Sans Pro', sans-serif; -webkit-user-select: none;"><circle class="marker-vertex" idx="0" r="10" style="cursor: move; font-family: 'Source Sans Pro', sans-serif; -webkit-user-select: none; fill: rgb(26, 188, 156);"/><path class="marker-vertex-remove-area" idx="0" d="M16,5.333c-7.732,0-14,4.701-14,10.5c0,1.982,0.741,3.833,2.016,5.414L2,25.667l5.613-1.441c2.339,1.317,5.237,2.107,8.387,2.107c7.732,0,14-4.701,14-10.5C30,10.034,23.732,5.333,16,5.333z" transform="translate(5, -33)" style="cursor: pointer; font-family: 'Source Sans Pro', sans-serif; opacity: 0.100000001490116; z-index: 0; -webkit-user-select: none;"/><path class="marker-vertex-remove" idx="0" transform="scale(.8) translate(9.5, -37)" d="M24.778,21.419 19.276,15.917 24.777,10.415 21.949,7.585 16.447,13.087 10.945,7.585 8.117,10.415 13.618,15.917 8.116,21.419 10.946,24.248 16.447,18.746 21.948,24.248z" style="cursor: pointer; font-family: 'Source Sans Pro', sans-serif; opacity: 0.100000001490116; z-index: 0; -webkit-user-select: none; fill: rgb(255, 255, 255);"><title style="cursor: pointer; font-family: 'Source Sans Pro', sans-serif; -webkit-user-select: none; fill: rgb(255, 255, 255);">Remove vertex.</title></path></g><g class="marker-vertex-group" transform="translate(430, 480)" id="v-725" style="cursor: move; font-family: 'Source Sans Pro', sans-serif; -webkit-user-select: none;"><circle class="marker-vertex" idx="1" r="10" style="cursor: move; font-family: 'Source Sans Pro', sans-serif; -webkit-user-select: none; fill: rgb(26, 188, 156);"/><path class="marker-vertex-remove-area" idx="1" d="M16,5.333c-7.732,0-14,4.701-14,10.5c0,1.982,0.741,3.833,2.016,5.414L2,25.667l5.613-1.441c2.339,1.317,5.237,2.107,8.387,2.107c7.732,0,14-4.701,14-10.5C30,10.034,23.732,5.333,16,5.333z" transform="translate(5, -33)" style="cursor: pointer; font-family: 'Source Sans Pro', sans-serif; opacity: 0.100000001490116; z-index: 0; -webkit-user-select: none;"/><path class="marker-vertex-remove" idx="1" transform="scale(.8) translate(9.5, -37)" d="M24.778,21.419 19.276,15.917 24.777,10.415 21.949,7.585 16.447,13.087 10.945,7.585 8.117,10.415 13.618,15.917 8.116,21.419 10.946,24.248 16.447,18.746 21.948,24.248z" style="cursor: pointer; font-family: 'Source Sans Pro', sans-serif; opacity: 0.100000001490116; z-index: 0; -webkit-user-select: none; fill: rgb(255, 255, 255);"><title style="cursor: pointer; font-family: 'Source Sans Pro', sans-serif; -webkit-user-select: none; fill: rgb(255, 255, 255);">Remove vertex.</title></path></g><g class="marker-vertex-group" transform="translate(300, 480)" id="v-726" style="cursor: move; font-family: 'Source Sans Pro', sans-serif; -webkit-user-select: none;"><circle class="marker-vertex" idx="2" r="10" style="cursor: move; font-family: 'Source Sans Pro', sans-serif; -webkit-user-select: none; fill: rgb(26, 188, 156);"/><path class="marker-vertex-remove-area" idx="2" d="M16,5.333c-7.732,0-14,4.701-14,10.5c0,1.982,0.741,3.833,2.016,5.414L2,25.667l5.613-1.441c2.339,1.317,5.237,2.107,8.387,2.107c7.732,0,14-4.701,14-10.5C30,10.034,23.732,5.333,16,5.333z" transform="translate(5, -33)" style="cursor: pointer; font-family: 'Source Sans Pro', sans-serif; opacity: 0.100000001490116; z-index: 0; -webkit-user-select: none;"/><path class="marker-vertex-remove" idx="2" transform="scale(.8) translate(9.5, -37)" d="M24.778,21.419 19.276,15.917 24.777,10.415 21.949,7.585 16.447,13.087 10.945,7.585 8.117,10.415 13.618,15.917 8.116,21.419 10.946,24.248 16.447,18.746 21.948,24.248z" style="cursor: pointer; font-family: 'Source Sans Pro', sans-serif; opacity: 0.100000001490116; z-index: 0; -webkit-user-select: none; fill: rgb(255, 255, 255);"><title style="cursor: pointer; font-family: 'Source Sans Pro', sans-serif; -webkit-user-select: none; fill: rgb(255, 255, 255);">Remove vertex.</title></path></g></g><g class="marker-arrowheads" id="v-601" style="cursor: -webkit-grab; font-family: 'Source Sans Pro', sans-serif; opacity: 0; z-index: 0; -webkit-user-select: none;"><g class="marker-arrowhead-group marker-arrowhead-group-source" id="v-604" transform="translate(463,440) scale(1,1) rotate(-270)" style="cursor: -webkit-grab; font-family: 'Source Sans Pro', sans-serif; -webkit-user-select: none;"><path class="marker-arrowhead" end="source" d="M 26 0 L 0 13 L 26 26 z" style="cursor: -webkit-grab; font-family: 'Source Sans Pro', sans-serif; -webkit-user-select: none; fill: rgb(26, 188, 156);"/></g><g class="marker-arrowhead-group marker-arrowhead-group-target" id="v-605" transform="translate(287,510) scale(1,1) rotate(-90)" style="cursor: -webkit-grab; font-family: 'Source Sans Pro', sans-serif; -webkit-user-select: none;"><path class="marker-arrowhead" end="target" d="M 26 0 L 0 13 L 26 26 z" style="cursor: -webkit-grab; font-family: 'Source Sans Pro', sans-serif; -webkit-user-select: none; fill: rgb(26, 188, 156);"/></g></g><g class="link-tools" id="v-602" style="cursor: pointer; font-family: 'Source Sans Pro', sans-serif; opacity: 0; z-index: 0; -webkit-user-select: none;"><g class="link-tool" id="v-603" transform="translate(450, 480) " style="cursor: pointer; font-family: 'Source Sans Pro', sans-serif; -webkit-user-select: none;"><g class="tool-remove" event="remove" style="cursor: pointer; font-family: 'Source Sans Pro', sans-serif; -webkit-user-select: none;"><circle r="11" style="cursor: pointer; font-family: 'Source Sans Pro', sans-serif; -webkit-user-select: none; fill: rgb(255, 0, 0);"/><path transform="scale(.8) translate(-16, -16)" d="M24.778,21.419 19.276,15.917 24.777,10.415 21.949,7.585 16.447,13.087 10.945,7.585 8.117,10.415 13.618,15.917 8.116,21.419 10.946,24.248 16.447,18.746 21.948,24.248z" style="cursor: pointer; font-family: 'Source Sans Pro', sans-serif; -webkit-user-select: none; fill: rgb(255, 255, 255);"/><title style="cursor: pointer; font-family: 'Source Sans Pro', sans-serif; -webkit-user-select: none;">Remove link.</title></g><g class="tool-options" event="link:options" id="v-617" style="cursor: pointer; display: block; font-family: 'Source Sans Pro', sans-serif; -webkit-user-select: none;"><circle r="11" transform="translate(25)" style="cursor: pointer; font-family: 'Source Sans Pro', sans-serif; -webkit-user-select: none;"/><path fill="white" transform="scale(.55) translate(29, -16)" d="M31.229,17.736c0.064-0.571,0.104-1.148,0.104-1.736s-0.04-1.166-0.104-1.737l-4.377-1.557c-0.218-0.716-0.504-1.401-0.851-2.05l1.993-4.192c-0.725-0.91-1.549-1.734-2.458-2.459l-4.193,1.994c-0.647-0.347-1.334-0.632-2.049-0.849l-1.558-4.378C17.165,0.708,16.588,0.667,16,0.667s-1.166,0.041-1.737,0.105L12.707,5.15c-0.716,0.217-1.401,0.502-2.05,0.849L6.464,4.005C5.554,4.73,4.73,5.554,4.005,6.464l1.994,4.192c-0.347,0.648-0.632,1.334-0.849,2.05l-4.378,1.557C0.708,14.834,0.667,15.412,0.667,16s0.041,1.165,0.105,1.736l4.378,1.558c0.217,0.715,0.502,1.401,0.849,2.049l-1.994,4.193c0.725,0.909,1.549,1.733,2.459,2.458l4.192-1.993c0.648,0.347,1.334,0.633,2.05,0.851l1.557,4.377c0.571,0.064,1.148,0.104,1.737,0.104c0.588,0,1.165-0.04,1.736-0.104l1.558-4.377c0.715-0.218,1.399-0.504,2.049-0.851l4.193,1.993c0.909-0.725,1.733-1.549,2.458-2.458l-1.993-4.193c0.347-0.647,0.633-1.334,0.851-2.049L31.229,17.736zM16,20.871c-2.69,0-4.872-2.182-4.872-4.871c0-2.69,2.182-4.872,4.872-4.872c2.689,0,4.871,2.182,4.871,4.872C20.871,18.689,18.689,20.871,16,20.871z" style="cursor: pointer; font-family: 'Source Sans Pro', sans-serif; -webkit-user-select: none;"/><title style="cursor: pointer; font-family: 'Source Sans Pro', sans-serif; -webkit-user-select: none;">Link options.</title></g></g></g></g><g id="j_80" model-id="e683aba2-7327-4ee8-bef7-198c277fb665" class="link" style="pointer-events: visiblePainted; cursor: -webkit-grabbing; font-family: 'Source Sans Pro', sans-serif; -webkit-user-select: none;"><path class="connection" stroke="black" id="v-730" d="M 450 440 450 470 450 500" style="cursor: -webkit-grabbing; font-family: 'Source Sans Pro', sans-serif; -webkit-user-select: none; fill: none; stroke-linejoin: round;"/><path class="marker-source" fill="black" stroke="black" id="v-731" d="M 10 0 L 0 5 L 10 10 z" transform="translate(450.0050000003539,440.0000048824586) scale(0.001,0.001) rotate(-270)" style="cursor: -webkit-grabbing; font-family: 'Source Sans Pro', sans-serif; -webkit-user-select: none; vector-effect: non-scaling-stroke;"/><path class="marker-target" fill="black" stroke="black" id="v-732" d="M 10 0 L 0 5 L 10 10 z" transform="translate(445,510) scale(1,1) rotate(-90)" style="cursor: -webkit-grabbing; font-family: 'Source Sans Pro', sans-serif; -webkit-user-select: none; vector-effect: non-scaling-stroke;"/><path class="connection-wrap" id="v-733" d="M 450 440 450 470 450 500" style="cursor: move; font-family: 'Source Sans Pro', sans-serif; opacity: 0; z-index: 0; -webkit-user-select: none; fill: none; stroke: rgb(0, 0, 0); stroke-linecap: round; stroke-linejoin: round; stroke-width: 15px;"/><g class="labels" id="v-734" style="cursor: -webkit-grabbing; font-family: 'Source Sans Pro', sans-serif; -webkit-user-select: none;"/><g class="marker-vertices" id="v-735" style="cursor: move; font-family: 'Source Sans Pro', sans-serif; opacity: 0; z-index: 0; -webkit-user-select: none;"><g class="marker-vertex-group" transform="translate(450, 470)" id="v-786" style="cursor: move; font-family: 'Source Sans Pro', sans-serif; -webkit-user-select: none;"><circle class="marker-vertex" idx="0" r="10" style="cursor: move; font-family: 'Source Sans Pro', sans-serif; -webkit-user-select: none; fill: rgb(26, 188, 156);"/><path class="marker-vertex-remove-area" idx="0" d="M16,5.333c-7.732,0-14,4.701-14,10.5c0,1.982,0.741,3.833,2.016,5.414L2,25.667l5.613-1.441c2.339,1.317,5.237,2.107,8.387,2.107c7.732,0,14-4.701,14-10.5C30,10.034,23.732,5.333,16,5.333z" transform="translate(5, -33)" style="cursor: pointer; font-family: 'Source Sans Pro', sans-serif; opacity: 0.100000001490116; z-index: 0; -webkit-user-select: none;"/><path class="marker-vertex-remove" idx="0" transform="scale(.8) translate(9.5, -37)" d="M24.778,21.419 19.276,15.917 24.777,10.415 21.949,7.585 16.447,13.087 10.945,7.585 8.117,10.415 13.618,15.917 8.116,21.419 10.946,24.248 16.447,18.746 21.948,24.248z" style="cursor: pointer; font-family: 'Source Sans Pro', sans-serif; opacity: 0.100000001490116; z-index: 0; -webkit-user-select: none; fill: rgb(255, 255, 255);"><title style="cursor: pointer; font-family: 'Source Sans Pro', sans-serif; -webkit-user-select: none; fill: rgb(255, 255, 255);">Remove vertex.</title></path></g></g><g class="marker-arrowheads" id="v-736" style="cursor: -webkit-grab; font-family: 'Source Sans Pro', sans-serif; opacity: 0; z-index: 0; -webkit-user-select: none;"><g class="marker-arrowhead-group marker-arrowhead-group-source" id="v-739" transform="translate(456.5,440) scale(0.5,0.5) rotate(-270)" style="cursor: -webkit-grab; font-family: 'Source Sans Pro', sans-serif; -webkit-user-select: none;"><path class="marker-arrowhead" end="source" d="M 26 0 L 0 13 L 26 26 z" style="cursor: -webkit-grab; font-family: 'Source Sans Pro', sans-serif; -webkit-user-select: none; fill: rgb(26, 188, 156);"/></g><g class="marker-arrowhead-group marker-arrowhead-group-target" id="v-740" transform="translate(443.5,510) scale(0.5,0.5) rotate(-90)" style="cursor: -webkit-grab; font-family: 'Source Sans Pro', sans-serif; -webkit-user-select: none;"><path class="marker-arrowhead" end="target" d="M 26 0 L 0 13 L 26 26 z" style="cursor: -webkit-grab; font-family: 'Source Sans Pro', sans-serif; -webkit-user-select: none; fill: rgb(26, 188, 156);"/></g></g><g class="link-tools" id="v-737" style="cursor: pointer; font-family: 'Source Sans Pro', sans-serif; opacity: 0; z-index: 0; -webkit-user-select: none;"><g class="link-tool" id="v-738" transform="translate(450, 460) scale(.5)" style="cursor: pointer; font-family: 'Source Sans Pro', sans-serif; -webkit-user-select: none;"><g class="tool-remove" event="remove" style="cursor: pointer; font-family: 'Source Sans Pro', sans-serif; -webkit-user-select: none;"><circle r="11" style="cursor: pointer; font-family: 'Source Sans Pro', sans-serif; -webkit-user-select: none; fill: rgb(255, 0, 0);"/><path transform="scale(.8) translate(-16, -16)" d="M24.778,21.419 19.276,15.917 24.777,10.415 21.949,7.585 16.447,13.087 10.945,7.585 8.117,10.415 13.618,15.917 8.116,21.419 10.946,24.248 16.447,18.746 21.948,24.248z" style="cursor: pointer; font-family: 'Source Sans Pro', sans-serif; -webkit-user-select: none; fill: rgb(255, 255, 255);"/><title style="cursor: pointer; font-family: 'Source Sans Pro', sans-serif; -webkit-user-select: none;">Remove link.</title></g><g class="tool-options" event="link:options" id="v-788" style="cursor: pointer; display: block; font-family: 'Source Sans Pro', sans-serif; -webkit-user-select: none;"><circle r="11" transform="translate(25)" style="cursor: pointer; font-family: 'Source Sans Pro', sans-serif; -webkit-user-select: none;"/><path fill="white" transform="scale(.55) translate(29, -16)" d="M31.229,17.736c0.064-0.571,0.104-1.148,0.104-1.736s-0.04-1.166-0.104-1.737l-4.377-1.557c-0.218-0.716-0.504-1.401-0.851-2.05l1.993-4.192c-0.725-0.91-1.549-1.734-2.458-2.459l-4.193,1.994c-0.647-0.347-1.334-0.632-2.049-0.849l-1.558-4.378C17.165,0.708,16.588,0.667,16,0.667s-1.166,0.041-1.737,0.105L12.707,5.15c-0.716,0.217-1.401,0.502-2.05,0.849L6.464,4.005C5.554,4.73,4.73,5.554,4.005,6.464l1.994,4.192c-0.347,0.648-0.632,1.334-0.849,2.05l-4.378,1.557C0.708,14.834,0.667,15.412,0.667,16s0.041,1.165,0.105,1.736l4.378,1.558c0.217,0.715,0.502,1.401,0.849,2.049l-1.994,4.193c0.725,0.909,1.549,1.733,2.459,2.458l4.192-1.993c0.648,0.347,1.334,0.633,2.05,0.851l1.557,4.377c0.571,0.064,1.148,0.104,1.737,0.104c0.588,0,1.165-0.04,1.736-0.104l1.558-4.377c0.715-0.218,1.399-0.504,2.049-0.851l4.193,1.993c0.909-0.725,1.733-1.549,2.458-2.458l-1.993-4.193c0.347-0.647,0.633-1.334,0.851-2.049L31.229,17.736zM16,20.871c-2.69,0-4.872-2.182-4.872-4.871c0-2.69,2.182-4.872,4.872-4.872c2.689,0,4.871,2.182,4.871,4.872C20.871,18.689,18.689,20.871,16,20.871z" style="cursor: pointer; font-family: 'Source Sans Pro', sans-serif; -webkit-user-select: none;"/><title style="cursor: pointer; font-family: 'Source Sans Pro', sans-serif; -webkit-user-select: none;">Link options.</title></g></g></g></g><g id="j_87" model-id="0e0736c1-3193-44bf-8beb-3617040cab47" class="link" style="pointer-events: visiblePainted; cursor: -webkit-grabbing; font-family: 'Source Sans Pro', sans-serif; -webkit-user-select: none;"><path class="connection" stroke="black" id="v-826" d="M 450 440 450 480 590 480 590 500" style="cursor: -webkit-grabbing; font-family: 'Source Sans Pro', sans-serif; -webkit-user-select: none; fill: none; stroke-linejoin: round;"/><path class="marker-source" fill="black" stroke="black" id="v-827" d="M 10 0 L 0 5 L 10 10 z" transform="translate(450.0050000003539,440.0000048824586) scale(0.001,0.001) rotate(-270)" style="cursor: -webkit-grabbing; font-family: 'Source Sans Pro', sans-serif; -webkit-user-select: none; vector-effect: non-scaling-stroke;"/><path class="marker-target" fill="black" stroke="black" id="v-828" d="M 10 0 L 0 5 L 10 10 z" transform="translate(585,510) scale(1,1) rotate(-90)" style="cursor: -webkit-grabbing; font-family: 'Source Sans Pro', sans-serif; -webkit-user-select: none; vector-effect: non-scaling-stroke;"/><path class="connection-wrap" id="v-829" d="M 450 440 450 480 590 480 590 500" style="cursor: move; font-family: 'Source Sans Pro', sans-serif; opacity: 0; z-index: 0; -webkit-user-select: none; fill: none; stroke: rgb(0, 0, 0); stroke-linecap: round; stroke-linejoin: round; stroke-width: 15px;"/><g class="labels" id="v-830" style="cursor: -webkit-grabbing; font-family: 'Source Sans Pro', sans-serif; -webkit-user-select: none;"/><g class="marker-vertices" id="v-831" style="cursor: move; font-family: 'Source Sans Pro', sans-serif; opacity: 0; z-index: 0; -webkit-user-select: none;"><g class="marker-vertex-group" transform="translate(450, 480)" id="v-874" style="cursor: move; font-family: 'Source Sans Pro', sans-serif; -webkit-user-select: none;"><circle class="marker-vertex" idx="0" r="10" style="cursor: move; font-family: 'Source Sans Pro', sans-serif; -webkit-user-select: none; fill: rgb(26, 188, 156);"/><path class="marker-vertex-remove-area" idx="0" d="M16,5.333c-7.732,0-14,4.701-14,10.5c0,1.982,0.741,3.833,2.016,5.414L2,25.667l5.613-1.441c2.339,1.317,5.237,2.107,8.387,2.107c7.732,0,14-4.701,14-10.5C30,10.034,23.732,5.333,16,5.333z" transform="translate(5, -33)" style="cursor: pointer; font-family: 'Source Sans Pro', sans-serif; opacity: 0.100000001490116; z-index: 0; -webkit-user-select: none;"/><path class="marker-vertex-remove" idx="0" transform="scale(.8) translate(9.5, -37)" d="M24.778,21.419 19.276,15.917 24.777,10.415 21.949,7.585 16.447,13.087 10.945,7.585 8.117,10.415 13.618,15.917 8.116,21.419 10.946,24.248 16.447,18.746 21.948,24.248z" style="cursor: pointer; font-family: 'Source Sans Pro', sans-serif; opacity: 0.100000001490116; z-index: 0; -webkit-user-select: none; fill: rgb(255, 255, 255);"><title style="cursor: pointer; font-family: 'Source Sans Pro', sans-serif; -webkit-user-select: none; fill: rgb(255, 255, 255);">Remove vertex.</title></path></g><g class="marker-vertex-group" transform="translate(590, 480)" id="v-875" style="cursor: move; font-family: 'Source Sans Pro', sans-serif; -webkit-user-select: none;"><circle class="marker-vertex" idx="1" r="10" style="cursor: move; font-family: 'Source Sans Pro', sans-serif; -webkit-user-select: none; fill: rgb(26, 188, 156);"/><path class="marker-vertex-remove-area" idx="1" d="M16,5.333c-7.732,0-14,4.701-14,10.5c0,1.982,0.741,3.833,2.016,5.414L2,25.667l5.613-1.441c2.339,1.317,5.237,2.107,8.387,2.107c7.732,0,14-4.701,14-10.5C30,10.034,23.732,5.333,16,5.333z" transform="translate(5, -33)" style="cursor: pointer; font-family: 'Source Sans Pro', sans-serif; opacity: 0.100000001490116; z-index: 0; -webkit-user-select: none;"/><path class="marker-vertex-remove" idx="1" transform="scale(.8) translate(9.5, -37)" d="M24.778,21.419 19.276,15.917 24.777,10.415 21.949,7.585 16.447,13.087 10.945,7.585 8.117,10.415 13.618,15.917 8.116,21.419 10.946,24.248 16.447,18.746 21.948,24.248z" style="cursor: pointer; font-family: 'Source Sans Pro', sans-serif; opacity: 0.100000001490116; z-index: 0; -webkit-user-select: none; fill: rgb(255, 255, 255);"><title style="cursor: pointer; font-family: 'Source Sans Pro', sans-serif; -webkit-user-select: none; fill: rgb(255, 255, 255);">Remove vertex.</title></path></g></g><g class="marker-arrowheads" id="v-832" style="cursor: -webkit-grab; font-family: 'Source Sans Pro', sans-serif; opacity: 0; z-index: 0; -webkit-user-select: none;"><g class="marker-arrowhead-group marker-arrowhead-group-source" id="v-835" transform="translate(463,440) scale(1,1) rotate(-270)" style="cursor: -webkit-grab; font-family: 'Source Sans Pro', sans-serif; -webkit-user-select: none;"><path class="marker-arrowhead" end="source" d="M 26 0 L 0 13 L 26 26 z" style="cursor: -webkit-grab; font-family: 'Source Sans Pro', sans-serif; -webkit-user-select: none; fill: rgb(26, 188, 156);"/></g><g class="marker-arrowhead-group marker-arrowhead-group-target" id="v-836" transform="translate(577,510) scale(1,1) rotate(-90)" style="cursor: -webkit-grab; font-family: 'Source Sans Pro', sans-serif; -webkit-user-select: none;"><path class="marker-arrowhead" end="target" d="M 26 0 L 0 13 L 26 26 z" style="cursor: -webkit-grab; font-family: 'Source Sans Pro', sans-serif; -webkit-user-select: none; fill: rgb(26, 188, 156);"/></g></g><g class="link-tools" id="v-833" style="cursor: pointer; font-family: 'Source Sans Pro', sans-serif; opacity: 0; z-index: 0; -webkit-user-select: none;"><g class="link-tool" id="v-834" transform="translate(450, 480) " style="cursor: pointer; font-family: 'Source Sans Pro', sans-serif; -webkit-user-select: none;"><g class="tool-remove" event="remove" style="cursor: pointer; font-family: 'Source Sans Pro', sans-serif; -webkit-user-select: none;"><circle r="11" style="cursor: pointer; font-family: 'Source Sans Pro', sans-serif; -webkit-user-select: none; fill: rgb(255, 0, 0);"/><path transform="scale(.8) translate(-16, -16)" d="M24.778,21.419 19.276,15.917 24.777,10.415 21.949,7.585 16.447,13.087 10.945,7.585 8.117,10.415 13.618,15.917 8.116,21.419 10.946,24.248 16.447,18.746 21.948,24.248z" style="cursor: pointer; font-family: 'Source Sans Pro', sans-serif; -webkit-user-select: none; fill: rgb(255, 255, 255);"/><title style="cursor: pointer; font-family: 'Source Sans Pro', sans-serif; -webkit-user-select: none;">Remove link.</title></g><g class="tool-options" event="link:options" id="v-878" style="cursor: pointer; display: block; font-family: 'Source Sans Pro', sans-serif; -webkit-user-select: none;"><circle r="11" transform="translate(25)" style="cursor: pointer; font-family: 'Source Sans Pro', sans-serif; -webkit-user-select: none;"/><path fill="white" transform="scale(.55) translate(29, -16)" d="M31.229,17.736c0.064-0.571,0.104-1.148,0.104-1.736s-0.04-1.166-0.104-1.737l-4.377-1.557c-0.218-0.716-0.504-1.401-0.851-2.05l1.993-4.192c-0.725-0.91-1.549-1.734-2.458-2.459l-4.193,1.994c-0.647-0.347-1.334-0.632-2.049-0.849l-1.558-4.378C17.165,0.708,16.588,0.667,16,0.667s-1.166,0.041-1.737,0.105L12.707,5.15c-0.716,0.217-1.401,0.502-2.05,0.849L6.464,4.005C5.554,4.73,4.73,5.554,4.005,6.464l1.994,4.192c-0.347,0.648-0.632,1.334-0.849,2.05l-4.378,1.557C0.708,14.834,0.667,15.412,0.667,16s0.041,1.165,0.105,1.736l4.378,1.558c0.217,0.715,0.502,1.401,0.849,2.049l-1.994,4.193c0.725,0.909,1.549,1.733,2.459,2.458l4.192-1.993c0.648,0.347,1.334,0.633,2.05,0.851l1.557,4.377c0.571,0.064,1.148,0.104,1.737,0.104c0.588,0,1.165-0.04,1.736-0.104l1.558-4.377c0.715-0.218,1.399-0.504,2.049-0.851l4.193,1.993c0.909-0.725,1.733-1.549,2.458-2.458l-1.993-4.193c0.347-0.647,0.633-1.334,0.851-2.049L31.229,17.736zM16,20.871c-2.69,0-4.872-2.182-4.872-4.871c0-2.69,2.182-4.872,4.872-4.872c2.689,0,4.871,2.182,4.871,4.872C20.871,18.689,18.689,20.871,16,20.871z" style="cursor: pointer; font-family: 'Source Sans Pro', sans-serif; -webkit-user-select: none;"/><title style="cursor: pointer; font-family: 'Source Sans Pro', sans-serif; -webkit-user-select: none;">Link options.</title></g></g></g></g></g><defs id="v-4" style="cursor: -webkit-grabbing; font-family: 'Source Sans Pro', sans-serif; -webkit-user-select: none;"/></svg>